<?xml version="1.0" encoding="UTF-8" standalone="no"?>
<!-- Created with Inkscape (http://www.inkscape.org/) -->

<svg
   xmlns:dc="http://purl.org/dc/elements/1.1/"
   xmlns:cc="http://creativecommons.org/ns#"
   xmlns:rdf="http://www.w3.org/1999/02/22-rdf-syntax-ns#"
   xmlns:svg="http://www.w3.org/2000/svg"
   xmlns="http://www.w3.org/2000/svg"
   xmlns:sodipodi="http://sodipodi.sourceforge.net/DTD/sodipodi-0.dtd"
   xmlns:inkscape="http://www.inkscape.org/namespaces/inkscape"
   width="210mm"
   height="297mm"
   viewBox="0 0 210 297"
   version="1.1"
   id="svg8"
   inkscape:version="0.92.3 (2405546, 2018-03-11)"
   sodipodi:docname="tweet.svg">
  <defs
     id="defs2">
    <clipPath
       clipPathUnits="userSpaceOnUse"
       id="clipPath942">
      <path
         style="fill:none;stroke:#000000;stroke-width:0.26458332px;stroke-linecap:butt;stroke-linejoin:miter;stroke-opacity:1"
         d="M 28.865108,29.997741 C 94.346141,14.763379 106.64054,27.592316 106.64054,27.592316 L 98.212661,64.386391 16.036172,110.1786 -0.28550349,99.653495 Z"
         id="path944"
         inkscape:connector-curvature="0" />
    </clipPath>
    <clipPath
       clipPathUnits="userSpaceOnUse"
       id="clipPath946">
      <path
         style="fill:none;stroke:#000000;stroke-width:0.26458332px;stroke-linecap:butt;stroke-linejoin:miter;stroke-opacity:1"
         d="M 28.865108,29.997741 C 94.346141,14.763379 106.64054,27.592316 106.64054,27.592316 L 98.212661,64.386391 16.036172,110.1786 -0.28550349,99.653495 Z"
         id="path948"
         inkscape:connector-curvature="0" />
    </clipPath>
    <clipPath
       clipPathUnits="userSpaceOnUse"
       id="clipPath950">
      <path
         style="fill:none;stroke:#000000;stroke-width:0.26458332px;stroke-linecap:butt;stroke-linejoin:miter;stroke-opacity:1"
         d="M 28.865108,29.997741 C 94.346141,14.763379 106.64054,27.592316 106.64054,27.592316 L 98.212661,64.386391 16.036172,110.1786 -0.28550349,99.653495 Z"
         id="path952"
         inkscape:connector-curvature="0" />
    </clipPath>
    <clipPath
       clipPathUnits="userSpaceOnUse"
       id="clipPath954">
      <path
         style="fill:none;stroke:#000000;stroke-width:0.26458332px;stroke-linecap:butt;stroke-linejoin:miter;stroke-opacity:1"
         d="M 28.865108,29.997741 C 94.346141,14.763379 106.64054,27.592316 106.64054,27.592316 L 98.212661,64.386391 16.036172,110.1786 -0.28550349,99.653495 Z"
         id="path956"
         inkscape:connector-curvature="0" />
    </clipPath>
    <clipPath
       clipPathUnits="userSpaceOnUse"
       id="clipPath958">
      <path
         style="fill:none;stroke:#000000;stroke-width:0.26458332px;stroke-linecap:butt;stroke-linejoin:miter;stroke-opacity:1"
         d="M 28.865108,29.997741 C 94.346141,14.763379 106.64054,27.592316 106.64054,27.592316 L 98.212661,64.386391 16.036172,110.1786 -0.28550349,99.653495 Z"
         id="path960"
         inkscape:connector-curvature="0" />
    </clipPath>
    <clipPath
       clipPathUnits="userSpaceOnUse"
       id="clipPath962">
      <path
         style="fill:none;stroke:#000000;stroke-width:0.26458332px;stroke-linecap:butt;stroke-linejoin:miter;stroke-opacity:1"
         d="M 28.865108,29.997741 C 94.346141,14.763379 106.64054,27.592316 106.64054,27.592316 L 98.212661,64.386391 16.036172,110.1786 -0.28550349,99.653495 Z"
         id="path964"
         inkscape:connector-curvature="0" />
    </clipPath>
    <clipPath
       clipPathUnits="userSpaceOnUse"
       id="clipPath966">
      <path
         style="fill:none;stroke:#000000;stroke-width:0.26458332px;stroke-linecap:butt;stroke-linejoin:miter;stroke-opacity:1"
         d="M 28.865108,29.997741 C 94.346141,14.763379 106.64054,27.592316 106.64054,27.592316 L 98.212661,64.386391 16.036172,110.1786 -0.28550349,99.653495 Z"
         id="path968"
         inkscape:connector-curvature="0" />
    </clipPath>
    <clipPath
       clipPathUnits="userSpaceOnUse"
       id="clipPath970">
      <path
         style="fill:none;stroke:#000000;stroke-width:0.26458332px;stroke-linecap:butt;stroke-linejoin:miter;stroke-opacity:1"
         d="M 28.865108,29.997741 C 94.346141,14.763379 106.64054,27.592316 106.64054,27.592316 L 98.212661,64.386391 16.036172,110.1786 -0.28550349,99.653495 Z"
         id="path972"
         inkscape:connector-curvature="0" />
    </clipPath>
    <clipPath
       clipPathUnits="userSpaceOnUse"
       id="clipPath966-4">
      <path
         style="fill:none;stroke:#000000;stroke-width:0.26458332px;stroke-linecap:butt;stroke-linejoin:miter;stroke-opacity:1"
         d="M 28.865108,29.997741 C 94.346141,14.763379 106.64054,27.592316 106.64054,27.592316 L 98.212661,64.386391 16.036172,110.1786 -0.28550349,99.653495 Z"
         id="path968-8"
         inkscape:connector-curvature="0" />
    </clipPath>
  </defs>
  <sodipodi:namedview
     id="base"
     pagecolor="#ffffff"
     bordercolor="#666666"
     borderopacity="1.0"
     inkscape:pageopacity="0.0"
     inkscape:pageshadow="2"
     inkscape:zoom="0.7"
     inkscape:cx="-344.27494"
     inkscape:cy="569.75402"
     inkscape:document-units="mm"
     inkscape:current-layer="layer1"
     showgrid="false"
     inkscape:window-width="1920"
     inkscape:window-height="1017"
     inkscape:window-x="-8"
     inkscape:window-y="-8"
     inkscape:window-maximized="1" />
  <metadata
     id="metadata5">
    <rdf:RDF>
      <cc:Work
         rdf:about="">
        <dc:format>image/svg+xml</dc:format>
        <dc:type
           rdf:resource="http://purl.org/dc/dcmitype/StillImage" />
        <dc:title />
      </cc:Work>
    </rdf:RDF>
  </metadata>
  <g
     inkscape:label="Calque 1"
     inkscape:groupmode="layer"
     id="layer1"
     style="display:inline">
    <rect
       style="opacity:0.03999999;fill:#008000;fill-opacity:1;stroke:#000100;stroke-width:0.26499999;stroke-miterlimit:4;stroke-dasharray:none;stroke-opacity:1"
       id="rect818"
       width="6.8035712"
       height="37.041664"
       x="102.43154"
       y="180.9613"
       clip-path="url(#clipPath970)" />
    <path
       style="fill:#0000ff;stroke:#000000;stroke-width:0.26458332px;stroke-linecap:butt;stroke-linejoin:miter;stroke-opacity:1"
       d="M 10.866815,89.49107 -0.47247024,99.696427 c 0,0 -0.18898808,-0.283482 -0.18898808,0.755953 0,1.03943 1.60639879,-0.37798 1.60639879,-0.37798 l 10.20535653,-8.787944 3.590774,0.472472 3.401786,0.377975 c 0,0 -0.566964,0.377976 1.700893,1.889882 2.267857,1.511903 7.181548,2.551337 7.181548,2.551337 l 1.700892,0.377979 c 0,0 1.511904,2.645833 1.889882,2.645833 0.377976,0 0.850445,1.228416 5.102678,-1.228423 4.252232,-2.456847 9.921874,-7.654018 9.921874,-7.654018 l 2.267858,-3.49628 c 0,0 -7.276042,-3.779761 -2.362351,-2.362351 4.913691,1.41741 6.425594,3.496281 11.622767,0.944941 5.197174,-2.55134 41.010417,-38.364583 41.010417,-38.364583 0,0 2.173365,-6.614583 1.889885,-5.858632 -0.283486,0.755952 -2.173368,-1.322916 -2.173368,-1.322916 l -1.039434,-2.456845 0.188987,-6.04762 -6.99256,-3.212796 -8.787944,-1.417413 -9.165924,1.511906 -5.197173,3.023809 -5.291666,3.779764 -12.095237,7.654017 -10.583333,5.858629 -5.008184,3.212798 -3.590774,2.929316 -6.99256,8.976934 c 0,0 -4.630209,11.339285 -4.724703,12.189733 -0.09449,0.850447 -1.228422,3.023809 -1.228422,3.023809 l -3.685268,-1.41741 3.496279,2.173361 c 0,0 -1.322916,2.834823 -1.606398,2.834823 -0.283482,0 -4.535715,-0.09449 -4.535715,-0.09449 z"
       id="path850"
       inkscape:connector-curvature="0"
       clip-path="url(#clipPath966)"
       transform="matrix(0.92279232,0.06281573,-0.07117016,1.045525,120.30343,81.666424)"
       onclick="alert('Open access')" />
    <path
       style="opacity:1;fill:#ff00ff;fill-opacity:1;stroke:#000100;stroke-width:0.00000003;stroke-miterlimit:4;stroke-dasharray:none;stroke-opacity:1"
       id="path896"
       d="m 94.26393,64.38639 c -3.039516,0 -6.003044,0 -9.023181,0 -4.793758,0 -9.79444,0 -15.201112,0 -0.907627,0 -1.843592,0 -2.765388,0 -2.904501,0 -5.944699,0 -9.217182,0 -1.55335,0 -2.23189,0 -3.786372,0 -0.552689,0 -1.105378,0 -1.658068,0 0,0 3.510091,0 3.510091,0 v 0 c 0.551514,0 1.103027,0 1.654544,0 1.434133,0 2.325675,0 3.749118,0 3.226211,0 6.195193,0 9.03509,0 0.901271,0 1.815177,0 2.703813,0 5.33749,0 10.292129,0 15.234106,0 3.162845,0 6.279721,0 9.713273,0 0,0 -3.948732,0 -3.948732,0 z"
       inkscape:connector-curvature="0"
       clip-path="url(#clipPath942)" />
    <path
       style="display:inline;fill:none;fill-rule:evenodd;stroke:#000000;stroke-width:0.26458332px;stroke-linecap:butt;stroke-linejoin:miter;stroke-opacity:1"
       d="m 121.74126,122.20573 v 0"
       id="path978"
       inkscape:connector-type="polyline"
       inkscape:connector-curvature="0" />
    <path
       style="opacity:1;fill:#d40000;fill-opacity:1;stroke:#000100;stroke-width:0.03571428;stroke-miterlimit:4;stroke-dasharray:none;stroke-opacity:1"
       d="m 105.14011,186.74147 c -0.10288,-0.007 -0.27035,-0.11514 -0.37225,-0.24016 -0.1751,-0.21472 -0.0963,-0.57699 1.42637,-6.56788 0.8864,-3.48729 1.67947,-6.62162 1.76239,-6.96514 l 0.15078,-0.6246 -1.75857,-2.78184 -1.75859,-2.78185 1.89604,-1.24177 1.89605,-1.24179 0.0211,-0.28812 c 0.0118,-0.15848 -0.0551,-0.93906 -0.14855,-1.73465 l -0.16978,-1.44648 -0.42095,0.0115 c -0.2315,0.006 -0.67173,0.019 -0.97825,0.0281 -0.70302,0.0209 -0.57654,-0.0701 0.38383,-0.27595 0.41295,-0.0886 0.76204,-0.1685 0.77576,-0.17761 0.0874,-0.0585 -0.35269,-2.39604 -0.58927,-3.12974 -0.37004,-1.14742 -1.03661,-4.02631 -2.08104,-8.98764 l -0.83684,-3.97504 0.41103,-5.63409 0.41103,-5.63407 0.66908,-2.2145 c 0.97299,-3.22045 2.4373,-6.49977 5.91313,-13.24256 2.45501,-4.76249 3.09806,-6.11419 5.6358,-11.84667 1.80711,-4.08207 3.28434,-7.583793 4.00171,-9.485905 0.83879,-2.224022 1.48361,-3.723751 2.4575,-5.71574 l 1.32034,-2.700572 3.36766,-3.149938 3.36768,-3.149936 3.98796,-1.829526 3.98795,-1.829532 3.6927,-0.597291 c 2.031,-0.328516 3.72977,-0.59046 3.77506,-0.582087 0.0452,0.0084 0.78587,1.14524 1.64576,2.52638 l 1.56335,2.511237 1.08394,0.720247 c 0.97018,0.644636 1.17559,0.739881 1.95717,0.907319 0.48024,0.102926 1.08752,0.159844 1.34949,0.126516 l 0.47624,-0.06054 0.76476,2.710355 0.76475,2.710362 -0.18467,0.970408 c -0.33972,1.785042 -3.4193,16.650783 -4.32577,20.881383 -3.84928,17.96482 -6.54177,28.88331 -7.92467,32.13603 -0.35267,0.82949 -1.27019,2.2081 -1.97758,2.97137 -0.63372,0.68377 -1.84312,1.4713 -2.71985,1.771 -0.38163,0.1305 -1.6175,0.45863 -2.74636,0.7291 -3.1552,0.75609 -4.59949,1.27597 -4.58608,1.65078 0.0137,0.38534 0.8778,0.45158 3.3887,0.25983 l 1.41525,-0.10857 0.0194,2.02735 0.0194,2.02737 -0.55099,1.96903 c -1.74233,6.2261 -3.4061,10.33739 -4.97663,12.29751 -0.58062,0.72463 -0.9056,0.96021 -1.54563,1.12033 -0.51366,0.12846 -0.9421,0.005 -2.55052,-0.73371 l -0.7752,-0.35618 -0.86935,0.33871 c -4.42511,1.72368 -7.22109,2.35013 -9.38187,2.10203 -0.8243,-0.0946 -1.03638,-0.20051 -0.99289,-0.49569 0.0305,-0.20729 -0.0219,-0.19152 -0.91572,0.2744 -0.52146,0.27193 -1.88704,0.96451 -3.03515,1.53806 -1.14765,0.57444 -2.23671,1.13823 -2.41941,1.25429 -0.32697,0.20664 -0.36225,0.31738 -2.07595,6.49103 -2.09192,7.53598 -1.8584,6.78055 -2.09112,6.7646 z"
       id="path1007"
       inkscape:connector-curvature="0"
       onclick="alert('Digital information')" />
    <path
       style="opacity:1;fill:#ff00ff;fill-opacity:1;stroke:#000100;stroke-width:0.1047843;stroke-miterlimit:4;stroke-dasharray:none;stroke-opacity:1"
       d="m 101.08002,189.15224 c 0.12107,-0.17481 -0.38209,-3.64656 -1.118109,-7.715 l -1.338233,-7.39716 2.016872,-2.91483 2.01687,-2.91485 -1.89654,-1.38652 -1.896529,-1.38652 0.2422,-1.6317 c 0.133229,-0.89744 0.403622,-1.74781 0.60092,-1.88972 0.197288,-0.14193 0.281718,-0.31431 0.187593,-0.38312 -0.198464,-0.14504 0.306206,-2.52953 0.886616,-4.18903 0.21956,-0.62776 1.10964,-3.81477 1.97792,-7.08218 l 1.57874,-5.9408 -0.0506,-6.1996 c -0.067,-8.21956 -0.63563,-10.4697 -5.577002,-22.06876 -2.640859,-6.19896 -6.941836,-17.914859 -8.451847,-23.022914 -0.53168,-1.798499 -1.474782,-4.530968 -2.095806,-6.072124 -1.122322,-2.785271 -1.148393,-2.822041 -4.332086,-6.10901 l -3.202957,-3.306876 -3.861825,-1.8889 c -3.554548,-1.738562 -4.150635,-1.935885 -7.491723,-2.479607 l -3.629882,-0.590743 -1.994704,2.817264 c -1.6488,2.328459 -2.208507,2.952865 -3.226639,3.598995 -1.098318,0.697021 -2.500337,1.070407 -3.230376,0.860341 -0.14246,-0.04099 -0.661162,1.162615 -1.152659,2.67471 l -0.893638,2.74926 0.822106,6.807892 c 1.489548,12.335002 5.019683,36.120392 6.537331,44.047572 1.037204,5.41761 1.558002,7.1681 2.649686,8.90587 1.276633,2.03226 2.242863,2.6062 6.209767,3.68861 1.929864,0.52656 3.734615,1.12246 4.010542,1.32417 1.008185,0.73708 -0.0021,1.0324 -2.787339,0.81482 l -1.753005,-0.13692 -0.1317,2.1686 c -0.284326,4.68355 3.071346,16.40263 5.128365,17.90994 0.786564,0.5764 1.346684,0.54646 2.953122,-0.15763 1.157841,-0.50753 1.347428,-0.48462 3.964358,0.47882 3.954538,1.45591 7.808526,1.94947 8.41245,1.07738 0.14575,-0.21046 1.015081,0.14536 2.832165,1.15941 1.442047,0.80469 2.901921,1.58935 3.244197,1.74366 0.52356,0.23602 0.84254,1.38433 2.010138,7.23618 0.763311,3.82558 1.438081,6.99234 1.499441,7.0372 0.0613,0.0448 0.21065,-0.0613 0.33169,-0.2362 z"
       id="path1009"
       inkscape:connector-curvature="0"
       inkscape:transform-center-x="-7.8776768"
       inkscape:transform-center-y="16.164291"
       onclick="alert('Intelligence collective et créativité')" />
    <path
       style="display:inline;fill:#ff6600;stroke:#000000;stroke-width:0.26458332px;stroke-linecap:butt;stroke-linejoin:miter;stroke-opacity:1"
       d="M 10.866815,89.49107 -0.47247024,99.696427 c 0,0 -0.18898808,-0.283482 -0.18898808,0.755953 0,1.03943 1.60639879,-0.37798 1.60639879,-0.37798 l 10.20535653,-8.787944 3.590774,0.472472 3.401786,0.377975 c 0,0 -0.566964,0.377976 1.700893,1.889882 2.267857,1.511903 7.181548,2.551337 7.181548,2.551337 l 1.700892,0.377979 c 0,0 1.511904,2.645833 1.889882,2.645833 0.377976,0 0.850445,1.228416 5.102678,-1.228423 4.252232,-2.456847 9.921874,-7.654018 9.921874,-7.654018 l 2.267858,-3.49628 c 0,0 -7.276042,-3.779761 -2.362351,-2.362351 4.913691,1.41741 6.425594,3.496281 11.622767,0.944941 5.197174,-2.55134 41.010417,-38.364583 41.010417,-38.364583 0,0 2.173365,-6.614583 1.889885,-5.858632 -0.283486,0.755952 -2.173368,-1.322916 -2.173368,-1.322916 l -1.039434,-2.456845 0.188987,-6.04762 -6.99256,-3.212796 -8.787944,-1.417413 -9.165924,1.511906 -5.197173,3.023809 -5.291666,3.779764 -12.095237,7.654017 -10.583333,5.858629 -5.008184,3.212798 -3.590774,2.929316 -6.99256,8.976934 c 0,0 -4.630209,11.339285 -4.724703,12.189733 -0.09449,0.850447 -1.228422,3.023809 -1.228422,3.023809 l -3.685268,-1.41741 3.496279,2.173361 c 0,0 -1.322916,2.834823 -1.606398,2.834823 -0.283482,0 -4.535715,-0.09449 -4.535715,-0.09449 z"
       id="path850-3"
       inkscape:connector-curvature="0"
       clip-path="url(#clipPath966-4)"
       transform="matrix(-1.0172118,-0.27562948,-0.24508645,0.8435299,113.82741,103.7894)"
       inkscape:transform-center-x="-1.5012024"
       inkscape:transform-center-y="15.628409"
       onclick="alert('Langage de modélisation')" />
    <ellipse
       style="opacity:1;fill:#000000;fill-opacity:1;stroke:#000100;stroke-width:0.1;stroke-miterlimit:4;stroke-dasharray:none;stroke-opacity:1"
       id="path1032"
       cx="104.2934"
       cy="193.26509"
       rx="25.352432"
       ry="15.666447" />
    <ellipse
       style="opacity:1;fill:#000000;fill-opacity:1;stroke:#000100;stroke-width:0.1;stroke-miterlimit:4;stroke-dasharray:none;stroke-opacity:1"
       id="path1034"
       cx="103.1875"
       cy="198.34821"
       rx="4.5357141"
       ry="6.4255953" />
    <flowRoot
       xml:space="preserve"
       id="flowRoot1036"
       style="font-style:normal;font-variant:normal;font-weight:normal;font-stretch:normal;font-size:40px;line-height:1.25;font-family:Mistral;-inkscape-font-specification:Mistral;letter-spacing:0px;word-spacing:0px;fill:#000000;fill-opacity:1;stroke:none"
       transform="scale(0.26458333)"><flowRegion
         id="flowRegion1038"
         style="font-style:normal;font-variant:normal;font-weight:normal;font-stretch:normal;font-family:Mistral;-inkscape-font-specification:Mistral"><rect
           id="rect1040"
           width="594.28571"
           height="160"
           x="112.85714"
           y="32.519684"
           style="font-style:normal;font-variant:normal;font-weight:normal;font-stretch:normal;font-family:Mistral;-inkscape-font-specification:Mistral" /></flowRegion><flowPara
         id="flowPara1042" /></flowRoot>  </g>
</svg>
