<svg xmlns="http://www.w3.org/2000/svg" xmlns:xlink="http://www.w3.org/1999/xlink" width="375" height="667" viewBox="0 0 375 667">
  <defs>
    <clipPath id="clip-iPhone_6_7_8_7">
      <rect width="375" height="667"/>
    </clipPath>
  </defs>
  <g id="iPhone_6_7_8_7" data-name="iPhone 6/7/8 – 7" clip-path="url(#clip-iPhone_6_7_8_7)">
    <rect width="375" height="667" fill="#fff"/>
    <rect id="Rectangle_34" data-name="Rectangle 34" width="375" height="667" fill="#fff"/>
    <g id="Ellipse_124" data-name="Ellipse 124" transform="translate(9.393 10.541)" stroke="#000" stroke-width="1">
      <ellipse cx="3.247" cy="3.247" rx="3.247" ry="3.247" stroke="none"/>
      <ellipse cx="3.247" cy="3.247" rx="2.747" ry="2.747" fill="none"/>
    </g>
    <g id="Ellipse_125" data-name="Ellipse 125" transform="translate(17.186 10.541)" stroke="#000" stroke-width="1">
      <ellipse cx="3.247" cy="3.247" rx="3.247" ry="3.247" stroke="none"/>
      <ellipse cx="3.247" cy="3.247" rx="2.747" ry="2.747" fill="none"/>
    </g>
    <g id="Ellipse_126" data-name="Ellipse 126" transform="translate(24.98 10.541)" fill="none" stroke="#000" stroke-width="1">
      <ellipse cx="3.247" cy="3.247" rx="3.247" ry="3.247" stroke="none"/>
      <ellipse cx="3.247" cy="3.247" rx="2.747" ry="2.747" fill="none"/>
    </g>
    <g id="Ellipse_127" data-name="Ellipse 127" transform="translate(32.773 10.541)" fill="none" stroke="#000" stroke-width="1">
      <ellipse cx="3.247" cy="3.247" rx="3.247" ry="3.247" stroke="none"/>
      <ellipse cx="3.247" cy="3.247" rx="2.747" ry="2.747" fill="none"/>
    </g>
    <g id="Ellipse_128" data-name="Ellipse 128" transform="translate(40.567 10.541)" fill="none" stroke="#000" stroke-width="1">
      <ellipse cx="3.247" cy="3.247" rx="3.247" ry="3.247" stroke="none"/>
      <ellipse cx="3.247" cy="3.247" rx="2.747" ry="2.747" fill="none"/>
    </g>
    <text id="Adobe" transform="translate(65.958 17.644)" font-size="10" font-family="HelveticaNeue, Helvetica Neue"><tspan x="-14.725" y="0">Adobe</tspan></text>
    <g id="wifi" transform="translate(91.225 10.241)">
      <path id="Tracé_3" data-name="Tracé 3" d="M11.684,5.41A8.07,8.07,0,0,0,5.91,3,7.992,7.992,0,0,0,.136,5.41a.439.439,0,0,0,0,.636l.636.636a.439.439,0,0,0,.636,0,6.366,6.366,0,0,1,9,0,.439.439,0,0,0,.636,0l.636-.636a.413.413,0,0,0,.136-.318A.354.354,0,0,0,11.684,5.41Z" transform="translate(0 -3)"/>
      <path id="Tracé_4" data-name="Tracé 4" d="M9.019,11a4.425,4.425,0,0,0-3.182,1.318.439.439,0,0,0,0,.636l.636.636a.439.439,0,0,0,.636,0,2.68,2.68,0,0,1,1.909-.773,2.886,2.886,0,0,1,1.909.773.439.439,0,0,0,.636,0l.636-.636a.439.439,0,0,0,0-.636A4.425,4.425,0,0,0,9.019,11Z" transform="translate(-3.109 -7.363)"/>
      <ellipse id="Ellipse_7" data-name="Ellipse 7" cx="0.909" cy="0.909" rx="0.909" ry="0.909" transform="translate(5.001 7.274)"/>
    </g>
    <text id="_16:50" data-name="16:50" transform="translate(187.758 17.644)" font-size="11" font-family="HelveticaNeue, Helvetica Neue"><tspan x="-13.761" y="0">16:50</tspan></text>
    <text id="_100_" data-name="100%" transform="translate(321.146 17.644)" font-size="10" font-family="HelveticaNeue, Helvetica Neue"><tspan x="-13.34" y="0">100%</tspan></text>
    <path id="battery" d="M7.625,1.664H5.878V0H2.672V1.664H.926C.415,1.664,0,2.311,0,3.106v20.42c0,.795.415,1.441.926,1.441h6.7c.51,0,.926-.647.926-1.441V3.106C8.55,2.311,8.135,1.664,7.625,1.664ZM3.206.832H5.344v.832H3.206Zm4.81,22.693c0,.336-.175.609-.391.609H.926c-.216,0-.391-.273-.391-.609V3.106C.534,2.77.71,2.5.926,2.5h6.7c.216,0,.391.273.391.609Z" transform="translate(365.586 9.541) rotate(90)"/>
    <rect id="Rectangle_35" data-name="Rectangle 35" width="23" height="8" rx="1" transform="translate(341 10)"/>
    <g id="Groupe_23" data-name="Groupe 23">
      <g id="Ellipse_123" data-name="Ellipse 123" transform="translate(318 45)" fill="#00f7a1" stroke="#00f7a1" stroke-width="2">
        <circle cx="17.5" cy="17.5" r="17.5" stroke="none"/>
        <circle cx="17.5" cy="17.5" r="16.5" fill="none"/>
      </g>
      <line id="Ligne_69" data-name="Ligne 69" x2="21.554" transform="translate(324.5 56.376)" fill="none" stroke="#fff" stroke-width="2"/>
      <line id="Ligne_70" data-name="Ligne 70" x2="21.554" transform="translate(324.5 62.438)" fill="none" stroke="#fff" stroke-width="2"/>
      <line id="Ligne_71" data-name="Ligne 71" x2="21.554" transform="translate(324.5 68.5)" fill="none" stroke="#fff" stroke-width="2"/>
    </g>
    <rect id="Rectangle_36" data-name="Rectangle 36" width="188" height="100" transform="translate(0 62)" fill="#00f7a1"/>
    <text id="Bibliothêque" transform="translate(132 129)" font-size="32" font-family="Mermaid-Bold, Mermaid" font-weight="700"><tspan x="-88.072" y="0">Bibliothêque</tspan></text>
    <text id="Auteurs" transform="translate(87 237)" font-size="24" font-family="Mermaid-Bold, Mermaid" font-weight="700" opacity="0.595"><tspan x="-40.998" y="0">Auteurs</tspan></text>
    <text id="Thêmes" transform="translate(86 318)" font-size="24" font-family="Mermaid-Bold, Mermaid" font-weight="700" opacity="0.595"><tspan x="-40.356" y="0">Thêmes</tspan></text>
    <text id="Dates" transform="translate(77 399)" font-size="24" font-family="Mermaid-Bold, Mermaid" font-weight="700" opacity="0.595"><tspan x="-28.866" y="0">Dates</tspan></text>
    <text id="Tags" transform="translate(71 480)" font-size="24" font-family="Mermaid-Bold, Mermaid" font-weight="700" opacity="0.595"><tspan x="-23.274" y="0">Tags</tspan></text>
    <rect id="Rectangle_37" data-name="Rectangle 37" width="19" height="12" transform="translate(44 253)" fill="#00f7a1"/>
    <line id="Ligne_72" data-name="Ligne 72" x2="259" transform="translate(44.5 258.5)" fill="none" stroke="#000" stroke-width="1" opacity="0.301"/>
    <rect id="Rectangle_38" data-name="Rectangle 38" width="19" height="12" transform="translate(44 334)" fill="#00f7a1"/>
    <line id="Ligne_73" data-name="Ligne 73" x2="259" transform="translate(43.5 339.5)" fill="none" stroke="#000" stroke-width="1" opacity="0.301"/>
    <rect id="Rectangle_39" data-name="Rectangle 39" width="19" height="12" transform="translate(48 415)" fill="#00f7a1"/>
    <rect id="Rectangle_40" data-name="Rectangle 40" width="19" height="12" transform="translate(45 496)" fill="#00f7a1"/>
    <line id="Ligne_74" data-name="Ligne 74" x2="259" transform="translate(47.5 420.5)" fill="none" stroke="#000" stroke-width="1" opacity="0.301"/>
    <line id="Ligne_75" data-name="Ligne 75" x2="259" transform="translate(47.5 501.5)" fill="none" stroke="#000" stroke-width="1" opacity="0.301"/>
  </g>
</svg>
