<?xml version="1.0" encoding="UTF-8" standalone="no"?>
<!-- Created with Inkscape (http://www.inkscape.org/) -->


<svg
   xmlns:dc="http://purl.org/dc/elements/1.1/"
   xmlns:cc="http://creativecommons.org/ns#"
   xmlns:rdf="http://www.w3.org/1999/02/22-rdf-syntax-ns#"
   xmlns:svg="http://www.w3.org/2000/svg"
   xmlns="http://www.w3.org/2000/svg"
   xmlns:sodipodi="http://sodipodi.sourceforge.net/DTD/sodipodi-0.dtd"
   xmlns:inkscape="http://www.inkscape.org/namespaces/inkscape"
   width="210mm"
   height="297mm"
   viewBox="0 0 210 297"
   version="1.1"
   id="svg8"
   inkscape:version="0.92.3 (2405546, 2018-03-11)"
   sodipodi:docname="circle_star.svg">
  <defs
     id="defs2">
    <inkscape:perspective
       id="perspective3864"
       inkscape:persp3d-origin="1518.9422 : 1851.2535 : 1"
       inkscape:vp_z="3018.8493 : 2558.3526 : 1"
       inkscape:vp_y="0 : 14284.828 : 0"
       inkscape:vp_x="19.035109 : 2558.3526 : 1"
       sodipodi:type="inkscape:persp3d" />
    <inkscape:perspective
       id="perspective3858"
       inkscape:persp3d-origin="2444.145 : 1887.2168 : 1"
       inkscape:vp_z="4862.6127 : 2594.3159 : 1"
       inkscape:vp_y="0 : 14284.828 : 0"
       inkscape:vp_x="25.67729 : 2594.3159 : 1"
       sodipodi:type="inkscape:persp3d" />
    <inkscape:perspective
     onclick="alert('composition contemporaine')"
       id="perspective3852"
    
       inkscape:persp3d-origin="1463.9403 : 1845.6632 : 1"
       inkscape:vp_z="2963.8474 : 2552.7623 : 1"
       inkscape:vp_y="0 : 14284.828 : 0"
       inkscape:vp_x="-35.966847 : 2552.7623 : 1"
       sodipodi:type="inkscape:persp3d" />
    <inkscape:perspective
       id="perspective3808"
       inkscape:persp3d-origin="163.621 : 291.16867 : 1"
       inkscape:vp_z="560.47141 : 478.25531 : 1"
       inkscape:vp_y="0 : 3779.5275 : 0"
       inkscape:vp_x="-233.22942 : 478.25531 : 1"
       sodipodi:type="inkscape:persp3d" />
    <inkscape:perspective
       sodipodi:type="inkscape:persp3d"
       inkscape:vp_x="-232.0995 : -25.274675 : 1"
       inkscape:vp_y="0 : 1000 : 0"
       inkscape:vp_z="-22.099487 : -25.274675 : 1"
       inkscape:persp3d-origin="-127.09949 : -74.774687 : 1"
       id="perspective16" />
    <meshgradient
       inkscape:collect="always"
       id="meshgradient3411"
       gradientUnits="userSpaceOnUse"
       x="5.2916656"
       y="32.416679">
      <meshrow
         id="meshrow3413">
        <meshpatch
           id="meshpatch3415">
          <stop
             path="c 22.9306,0  45.8611,0  68.7917,0"
             style="stop-color:#ffffff;stop-opacity:1"
             id="stop3417" />
          <stop
             path="c 0,10.5833  0,21.1667  0,31.75"
             style="stop-color:#c83737;stop-opacity:1"
             id="stop3419" />
          <stop
             path="c -22.9306,0  -45.8611,0  -68.7917,0"
             style="stop-color:#ffffff;stop-opacity:1"
             id="stop3421" />
          <stop
             path="c 0,-10.5833  0,-21.1667  0,-31.75"
             style="stop-color:#c83737;stop-opacity:1"
             id="stop3423" />
        </meshpatch>
      </meshrow>
    </meshgradient>
  </defs>
  <sodipodi:namedview
     id="base"
     pagecolor="#ffffff"
     bordercolor="#666666"
     borderopacity="1.0"
     inkscape:pageopacity="0.0"
     inkscape:pageshadow="2"
     inkscape:zoom="0.49497475"
     inkscape:cx="321.88308"
     inkscape:cy="583.71351"
     inkscape:document-units="mm"
     inkscape:current-layer="layer1"
     showgrid="true"
     showguides="false"
     inkscape:window-width="1366"
     inkscape:window-height="746"
     inkscape:window-x="-8"
     inkscape:window-y="-8"
     inkscape:window-maximized="1">
    <inkscape:grid
       type="xygrid"
       id="grid61" />
  </sodipodi:namedview>
  <metadata
     id="metadata5">
    <rdf:RDF>
      <cc:Work
         rdf:about="">
        <dc:format>image/svg+xml</dc:format>
        <dc:type
           rdf:resource="http://purl.org/dc/dcmitype/StillImage" />
        <dc:title></dc:title>
      </cc:Work>
    </rdf:RDF>
  </metadata>
  <g
     inkscape:label="Layer 1"
     inkscape:groupmode="layer"
     id="layer1"
     style="display:inline">
    <rect
       style="fill:url(#meshgradient3411);fill-opacity:1;stroke-width:0.26629585"
       id="rect63"
       width="68.791664"
       height="31.749998"
       x="5.2916656"
       y="32.416679"
       ry="15.874997" />
    <path
       sodipodi:type="star"
       
         onclick="alert('Blues is a music genre and musical form originated by African Americans in the Deep South of the United States around the end of the 19th century. The genre developed from roots in African musical traditions, African-American work songs, and spirituals. Blues incorporated spirituals, work songs, field hollers, shouts, chants, and rhymed simple narrative ballads. The blues form, ubiquitous in jazz, rhythm and blues and rock and roll, is characterized by the call-and-response pattern, the blues scale and specific chord progressions, of which the twelve-bar blues is the most common. Blue notes (or worried notes), usually thirds or fifths flattened in pitch, are also an essential part of the sound. Blues shuffles or walking bass reinforce the trance-like rhythm and form a repetitive effect known as the groove.')"

       style="fill:#90b4b8;stroke-width:0.26458332"
       id="path93"
       sodipodi:sides="5"
       sodipodi:cx="99.101929"
       sodipodi:cy="42.677494"
       sodipodi:r1="16.733719"
       sodipodi:r2="8.3668594"
       sodipodi:arg1="1.2490458"
       sodipodi:arg2="1.8773643"
       inkscape:flatsided="false"
       inkscape:rounded="0"
       inkscape:randomized="0"
       d="m 104.39359,58.552494 -7.816683,-7.898246 -10.937785,1.961564 5.096188,-9.874803 -5.24552,-9.796296 10.966305,1.795281 7.695875,-8.016008 1.68136,10.984349 10.00184,4.84213 -9.92717,4.993419 z"
       inkscape:transform-center-x="-1.5605486"
       inkscape:transform-center-y="-0.039255147" />
    <path
       sodipodi:type="star"

       onclick="alert('Jazz is a music genre that originated in the African-American communities of New Orleans, United States, in the late 19th and early 20th centuries, and developed from roots in blues and ragtime. Jazz is seen by many as America's classical music.Since the 1920s Jazz Age, jazz has become recognized as a major form of musical expression. It then emerged in the form of independent traditional and popular musical styles, all linked by the common bonds of African-American and European-American musical parentage with a performance orientation. Jazz is characterized by swing and blue notes, call and response vocals, polyrhythms and improvisation. Jazz has roots in West African cultural and musical expression, and in African-American music traditions including blues and ragtime, as well as European military band music. Intellectuals around the world have hailed jazz as one of America's original art forms.')"
       style="fill:#ffcc00;stroke-width:0.26458332"
       id="path95"
       sodipodi:sides="5"
       sodipodi:cx="151.13416"
       sodipodi:cy="48.253941"
       sodipodi:r1="42.662777"
       sodipodi:r2="21.331388"
       sodipodi:arg1="2.0899424"
       sodipodi:arg2="2.718261"
       inkscape:flatsided="false"
       inkscape:rounded="0"
       inkscape:randomized="0"
       d="m 129.96749,85.295605 1.7183,-28.278724 -22.32121,-17.44713 27.42565,-7.10441 9.69557,-26.620189 15.23169,23.887957 28.3134,0.994948 -18.01195,21.86798 7.80307,27.2351 -26.36368,-10.372802 z"
       inkscape:transform-center-x="1.4364205"
       inkscape:transform-center-y="-2.6835641" />
    <path
       sodipodi:type="star"
       style="fill:#d8c890;stroke-width:0.26458332"
       id="path97"
       sodipodi:sides="5"
       sodipodi:cx="141.3606"
       sodipodi:cy="101.63361"
       sodipodi:r1="16.733719"
       sodipodi:r2="8.3668594"
       sodipodi:arg1="1.2490458"
       sodipodi:arg2="1.8773643"
       inkscape:flatsided="false"
       inkscape:rounded="0"
       inkscape:randomized="0"
       d="m 146.65226,117.50861 -7.81669,-7.89824 -10.93778,1.96156 5.09619,-9.8748 -5.24552,-9.796298 10.9663,1.795282 7.69588,-8.016008 1.68136,10.984348 10.00183,4.842126 -9.92716,4.99342 z"
       inkscape:transform-center-x="-1.5605482"
       inkscape:transform-center-y="-0.039256014" />
    <path
       sodipodi:type="star"
       style="fill:#ff794b;stroke-width:0.26458332"
       id="path99"
       sodipodi:sides="5"
       sodipodi:cx="87.314025"
       sodipodi:cy="111.59082"
       sodipodi:r1="26.458332"
       sodipodi:r2="13.229166"
       sodipodi:arg1="0.64350111"
       sodipodi:arg2="1.2718196"
       inkscape:flatsided="false"
       inkscape:rounded="0"
       inkscape:randomized="0"
       d="m 108.48069,127.46582 -17.270113,-3.2327 -12.453713,12.39404 -2.262278,-17.42381 -15.635843,-8.01422 15.87195,-7.53581 2.790231,-17.347098 12.071682,12.766428 17.360304,-2.70688 -8.41124,15.42589 z"
       inkscape:transform-center-x="2.4082012"
       inkscape:transform-center-y="-0.12413133" />
    <path
       id="path101"
       style="fill:#7fff7f;stroke-width:0.26458332"
       d="M 61.123917,156.14606 63.5,170 l -10.06502,9.81129 13.909747,2.02106 6.220809,12.6044 6.220809,-12.6044 13.909743,-2.02106 L 83.630553,170 l 2.376601,-13.85394 -12.441618,6.54069 z"
       inkscape:connector-curvature="0" />
    <path
       sodipodi:type="star"
       style="fill:#ff1c00;stroke-width:0.26458332"
       id="path103"
       sodipodi:sides="5"
       sodipodi:cx="186.84507"
       sodipodi:cy="103.18879"
       sodipodi:r1="19.079374"
       sodipodi:r2="9.5396872"
       sodipodi:arg1="0.98279372"
       sodipodi:arg2="1.6111123"
       inkscape:flatsided="false"
       inkscape:rounded="0"
       inkscape:randomized="0"
       d="m 197.42841,119.06379 -10.96783,-6.34307 -11.44309,5.43906 2.64336,-12.39114 -8.70896,-9.202268 12.60152,-1.315082 6.06066,-11.126371 5.1448,11.578375 12.45466,2.325792 -9.42186,8.470914 z"
       inkscape:transform-center-x="-0.23763186"
       inkscape:transform-center-y="-1.5944387" />
    <path
       id="path133"
       transform="scale(0.26458333)"
       style="fill:#ee6840;fill-opacity:0.02524282;stroke-width:0.99999994"
       d="m 102.26953,604.01172 -45.98828,1.48047 c 1.865563,5.7157 3.084933,11.59576 4.841797,17.35742 1.749679,5.39093 4.289757,10.472 7.886719,14.85156 3.796754,4.12407 7.282409,8.47544 11.318359,12.375 4.631834,4.71039 9.82381,8.76392 15.410156,12.26758 5.040629,3.14324 10.747939,4.3039 16.564449,4.89453 18.04754,1.16005 11.13937,0.77668 50.52539,-0.0937 0.96454,-0.0213 1.83779,-0.59285 2.76563,-0.85742 2.86559,-0.81645 5.62131,-1.77601 8.44727,-2.72656 0.79083,-0.27153 1.56273,-0.58016 2.32617,-0.90625 2.11294,6.95461 4.87069,13.82618 7.84375,20.83008 5.65766,12.6565 13.7494,23.8626 22.93945,34.14843 6.05564,6.77397 12.8462,12.83593 20.69336,17.43164 7.57267,3.25709 16.01944,4.84296 24.27734,4.84375 16.71599,0.002 33.43286,-0.23439 50.14844,-0.35156 12.82561,-1.99071 24.37289,-7.72868 35.96485,-13.19531 5.57873,-3.26608 11.18311,-6.49336 16.71289,-9.8418 l -45.03516,-4.62109 c -5.2977,3.26426 -10.56564,6.60103 -16.10938,9.43945 -6.9097,3.33192 -13.94236,6.48554 -21.25976,8.67188 -7.99855,-3.64353 -14.49734,-9.45536 -20.60352,-15.72461 -9.41131,-9.83864 -18.16731,-20.31624 -24.26172,-32.60352 -7.90323,-17.35869 -13.64123,-32.63388 -9.88867,-52.00195 0.53702,-1.99815 0.92316,-3.79041 1.51953,-5.56055 0.73465,-1.1264 1.44616,-2.26962 2.10743,-3.45312 0.11166,-0.27927 0.19641,-0.48949 0.30273,-0.75391 0.38997,-0.33839 0.65211,-0.60916 0.29102,-0.64649 -0.0109,-10e-4 -0.0204,-0.003 -0.0312,-0.004 5.27034,-13.08349 2.78991,-6.83022 -29.66797,-4.13867 -10.21133,-1.96055 -14.92079,-3.71495 -16.84766,-4.70899 0.77661,0.93382 1.55004,2.70004 1.06055,5.56836 -0.20489,0.006 -0.39506,0.014 -0.60156,0.0195 -0.98748,0.0264 -0.66068,1.8637 -0.92188,2.81641 -0.16226,0.59183 -0.2777,1.07511 -0.40625,1.58984 -3.21213,4.87385 -7.11134,9.25326 -11.07422,13.54102 -3.54868,3.60298 -7.27034,7.02186 -10.85351,10.58984 -2.81619,2.40408 -5.89363,4.42221 -9.10157,6.26367 -2.32227,1.50972 -4.72382,2.89644 -7.21093,4.10157 -3.83085,-2.41578 -7.38044,-5.25057 -10.60547,-8.4668 -3.95633,-3.87602 -7.74365,-7.80591 -11.16993,-12.16016 -3.76936,-3.47202 -6.11041,-8.06869 -7.96484,-12.79492 -1.81187,-5.75134 -3.26411,-11.53556 -4.34375,-17.4707 z m 73.19336,6.40234 c -1.02203,-1.22893 -1.98964,-1.02641 0,0 z M 299.70703,733.4707 c 1.61847,0.0608 1.55753,0.0667 0,0 z"
       inkscape:connector-curvature="0" />
    <path
       sodipodi:type="spiral"
       onclick="alert('Blues rock is a fusion genre combining elements of blues and rock. It is mostly an electric ensemble-style music with instrumentation similar to electric blues and rock: electric guitar, electric bass, and drums, often with Hammond organ. From its beginnings in the early- to mid-1960s, blues rock has gone through several stylistic shifts and along the way it inspired and influenced hard rock, Southern rock, and early heavy metal. Blues rock continues to be an influence in the 2010s, with performances and recordings by popular artists.')"

       style="fill:#009bff;fill-rule:evenodd;stroke:#000000;stroke-width:0.26458332"
       id="path137"
       sodipodi:cx="127"
       sodipodi:cy="180.58333"
       sodipodi:expansion="0.38999999"
       sodipodi:revolution="43.374825"
       sodipodi:radius="56.426594"
       sodipodi:argument="-16.898252"
       sodipodi:t0="0"
       d="m 127,180.58333 c -2.42991,6.07477 -7.64591,1.77763 -7.0134,-2.80537 0.68613,-4.97153 6.12692,-7.58404 10.68953,-6.38495 5.79089,1.52191 8.79793,7.92996 7.08867,13.49625 -1.9909,6.48343 -9.2578,9.82235 -15.58198,7.73699 -7.08268,-2.33546 -10.7106,-10.34119 -8.32075,-17.2981 2.6156,-7.61407 11.2716,-11.4999 18.78039,-8.85094 8.09416,2.85547 12.21418,12.09541 9.33771,20.0982 -3.0674,8.53403 -12.83981,12.86942 -21.29257,9.78889 -8.94138,-3.25861 -13.47684,-13.52227 -10.21038,-22.3901 3.43369,-9.32183 14.15475,-14.04458 23.40914,-10.60673 9.67957,3.5958 14.57877,14.74591 10.98147,24.363 -3.74721,10.01785 -15.30216,15.08417 -25.26167,11.33743 -10.33922,-3.88959 -15.5645,-15.82849 -11.67686,-26.11287 4.02425,-10.64573 16.32879,-16.02279 26.92269,-12.00162 10.93907,4.15218 16.46152,16.80619 12.31329,27.69605 -4.27424,11.22063 -17.2633,16.88275 -28.43701,12.61315 -11.49158,-4.39107 -17.2882,-17.70221 -12.90231,-29.14892 4.50322,-11.7529 18.12475,-17.67932 29.8346,-13.18171 12.00545,4.61116 18.0574,18.53241 13.45218,30.49646 -4.71528,12.24998 -18.92652,18.42351 -31.13658,13.71443 -12.4871,-4.81592 -18.778586,-19.30818 -13.96908,-31.75673 4.91337,-12.71739 19.67841,-19.12349 32.35849,-14.2167 12.94135,5.0079 19.45894,20.03806 14.45776,32.94324 -5.0997,13.15941 -20.38787,19.78559 -33.51217,14.6927 -13.37196,-5.18898 -20.104028,-20.72855 -14.92193,-34.06638 5.27594,-13.57936 21.06069,-20.41477 34.60684,-15.14578 13.78192,5.36069 20.71829,21.38483 15.36459,35.13439 -5.44342,13.97994 -21.70147,21.01503 -35.64985,15.57864 -14.17367,-5.52421 -21.305357,-22.01105 -15.78818,-36.15389 5.60319,-14.36334 22.31395,-21.58963 36.64717,-15.99348 14.54918,5.68047 21.86817,22.61056 16.19473,37.13028 -5.75613,14.73138 -22.9012,22.14127 -37.60375,16.39216 -14.91012,-5.83028 -22.409206,-23.1862 -16.585932,-38.06808 5.902982,-15.08557 23.465812,-22.67222 38.523702,-16.77623 15.25789,5.9743 22.93056,23.7403 16.96323,38.97105 -6.04432,15.42723 -24.00993,23.18443 -39.41052,17.14705 -15.59369,-6.11308 -23.434012,-24.2749 -17.327835,-39.84244 6.180665,-15.75743 24.535415,-23.67951 40.267155,-17.50573 15.91856,6.24711 23.9211,24.79168 17.68084,40.68498 -6.31246,16.07717 -25.04386,24.15894 -41.0962,17.85329 -16.233368,-6.37677 -24.39316,-25.29214 -18.023157,-41.50108 6.440087,-16.38726 25.536657,-24.62393 41.899867,-18.19057 16.53892,6.50243 24.85136,25.77757 18.35561,42.29281 -6.56387,16.68843 -26.01501,25.07558 -42.68013,18.51836 -16.83588,-6.62442 -25.296702,-26.24912 -18.678895,-43.06202 6.684105,-16.98134 26.479995,-25.51486 43.438685,-18.83732 17.12488,6.74298 25.73012,26.70777 18.99367,43.81031 -6.80105,17.26656 -26.93254,25.94262 -44.17707,19.14805 -17.406434,-6.85836 -26.152412,-27.15442 -19.300492,-44.53913 6.914932,-17.54458 27.373502,-26.35962 44.896632,-19.45108 17.68106,6.97079 26.56431,27.58987 19.59988,45.24974 -7.02596,17.8159 -27.80362,26.76656 -45.5986,19.74693 -17.949153,-7.08046 -26.966446,-28.01483 -19.892275,-45.94333 7.134305,-18.08089 28.223575,-27.16405 46.284055,-20.03599 18.21114,7.18752 27.35942,28.42994 20.17811,46.62091 -7.24013,18.33994 -28.63398,27.55264 -46.954,20.31867 -18.467345,-7.29215 -27.743757,-28.83577 -20.457732,-47.28342 7.343592,-18.5934 29.035382,-27.93285 47.609302,-20.59534 18.71812,7.39448 28.11995,29.23287 20.73151,47.93173 -7.44482,18.84156 -29.42829,28.30512 -48.25079,20.86631 -18.963748,-7.49464 -28.488429,-29.6217 -20.999758,-48.56659 7.543943,-19.08472 29.813158,-28.66991 48.879218,-21.1319 19.2045,7.59275 28.8496,30.00271 21.26275,49.18874 -7.64107,19.32312 -30.19041,29.02757 -49.49525,21.39236 -19.440622,-7.68892 -29.203845,-30.3763 -21.52075,-49.79882 7.736301,-19.55701 30.56043,-29.37847 50.09952,-21.64795 19.67233,7.78324 29.55148,30.74284 21.77399,50.39742 -7.82973,19.78661 -30.92356,29.72293 -50.69259,21.89891 -19.899863,-7.8758 -29.892846,-31.10266 -22.022723,-50.9851 7.921452,-20.01212 31.280163,-30.06126 51.275013,-22.14546 20.12339,7.9667 30.22822,31.4561 22.26713,51.56238 -8.01154,20.23372 -31.6305,30.39374 -51.84726,22.38778 -20.343104,-8.056 -30.55787,-31.80342 -22.507418,-52.12971 8.100072,-20.45159 31.974878,-30.72064 52.409798,-22.62608 20.55917,8.14378 30.88205,32.14492 22.74376,52.68756 -8.18712,20.66588 -32.31355,31.04217 -52.96305,22.8605 -20.771733,-8.2301 -31.200997,-32.48082 -22.976316,-53.23631 8.272733,-20.87675 32.646756,-31.35857 53.507396,-23.09123 20.98096,8.31503 31.51493,32.81139 23.20526,53.77636 -8.35699,21.08435 -32.97473,31.67007 -54.04323,23.31841 -21.186958,-8.39862 -31.824034,-33.13682 -23.430709,-54.30805 8.439934,-21.2888 33.297679,-31.97685 54.570869,-23.54218 21.38988,8.48093 32.12852,33.45733 23.65282,54.83172 -8.52162,21.49022 -33.6158,32.27909 -55.09064,23.76267 -21.589838,-8.56201 -32.428563,-33.77311 -23.87173,-55.34769 8.602108,-21.68873 33.92928,-32.57696 55.60287,-23.98 21.78693,8.64191 32.72432,34.08433 24.08753,55.85623 -8.68143,21.88444 -34.2383,32.87064 -56.10781,24.19431 -21.981284,-8.72067 -33.015956,-34.39118 -24.300358,-56.35764 8.759636,-22.07746 34.543008,-33.16027 56.605748,-24.40568 22.17298,8.79833 33.30362,34.6938 24.5103,56.85217 -8.83676,22.26786 -34.84358,33.44599 -57.09692,24.61422 -22.36212,-8.87493 -33.587444,-34.99235 -24.717477,-57.34005 8.912853,-22.45576 35.140147,-33.72796 57.581587,-24.82005 22.54878,8.95052 33.86756,35.28697 24.92196,57.82154 -8.98794,22.64122 -35.43285,34.00627 -58.05994,25.02323 -22.73307,-9.02512 -34.144111,-35.57779 -25.123864,-58.29683 9.062056,-22.82434 35.721814,-34.28108 58.532214,-25.22387 22.91504,9.09877 34.41719,35.86494 25.32325,58.76613 -9.13523,23.00519 -36.00716,34.55248 -58.99859,25.42204 -23.094791,-9.17148 -34.686938,-36.14853 -25.520227,-59.22964 9.207513,-23.18384 36.289027,-34.82058 59.459287,-25.61782 23.27237,9.24332 34.95343,36.42869 25.71484,59.68755 -9.27891,23.36037 -36.56751,35.0855 -59.91445,25.81129 -23.447863,-9.31429 -35.216797,-36.70551 -25.907191,-60.14002 9.349461,-23.53484 36.842711,-35.34733 60.364281,-26.00253 23.62132,9.38442 35.47711,36.97911 26.09732,60.58724 -9.41919,23.7073 -37.11473,35.60615 -60.80892,26.19158 -23.792806,-9.45375 -35.734469,-37.24958 -26.285317,-61.02935 9.488117,-23.87783 37.383677,-35.86207 61.248537,-26.37853 23.96238,9.52229 35.98896,37.51702 26.47123,61.46651 -9.55627,24.04647 -37.64962,36.11516 -61.68327,26.56343 -24.130103,-9.59007 -36.240672,-37.78151 -26.655125,-61.89886 9.623673,-24.21328 37.912665,-36.3655 62.113265,-26.74633 24.29602,9.6571 36.48968,38.04312 26.83706,62.32653 -9.69035,24.37831 -38.17289,36.61319 -62.53866,26.9273 -24.460179,-9.72341 -36.736048,-38.30196 -27.017074,-62.74967 9.756307,-24.54161 38.430354,-36.85827 62.959564,-27.10638 24.62264,9.78903 36.97987,38.55809 27.19524,63.16838 -9.82158,24.70324 -38.68516,37.10084 -63.37612,27.28364 -24.783433,-9.85396 -37.221192,-38.81158 -27.371595,-63.5828 9.886178,-24.86322 38.937365,-37.34094 63.788435,-27.45911 24.94261,9.91823 37.4601,39.06251 27.54619,63.99304 -9.95012,25.02161 -39.18703,37.57866 -64.19662,27.63284 -25.100224,-9.98185 -37.696643,-39.31094 -27.719077,-64.3992 10.013435,-25.17845 39.434247,-37.81405 64.600787,-27.80489 25.2563,10.04486 37.93089,39.55695 27.89029,64.8014 -10.07612,25.33378 -39.67905,38.04717 -65.00104,27.97529 -25.410879,-10.10725 -38.162893,-39.80058 -28.059874,-65.19973 10.13821,-25.48763 39.921524,-38.27808 65.397474,-28.14408 25.56401,10.16904 38.39272,40.04191 28.22787,65.59429 -10.1997,25.64004 -40.16171,38.50683 -65.79018,28.31129 -25.715709,-10.23024 -38.620404,-40.28097 -28.394322,-65.98517 10.26063,-25.79104 40.399672,-38.73346 66.179262,-28.47698 25.86603,10.29088 38.84601,40.51784 28.55926,66.37247 -10.32099,25.94067 -40.63547,38.95805 -66.5648,28.64117 -26.014984,-10.35097 -39.069585,-40.75256 -28.722713,-66.75626 10.380806,-26.08897 40.869133,-39.18063 66.946863,-28.8039 26.16263,10.41051 39.29118,40.98519 28.88474,67.13663 -10.44009,26.23596 -41.10074,39.40125 -67.32556,28.96521 -26.308975,-10.46953 -39.510838,-41.21577 -29.045341,-67.51366 10.498844,-26.38167 41.330311,-39.61995 67.700941,-29.12512 26.45406,10.52803 39.7286,41.44435 29.20457,67.88741 -10.55709,26.52615 -41.5579,39.83679 -68.07309,29.28369 -26.597921,-10.58603 -39.944521,-41.67098 -29.362465,-68.25799 10.614842,-26.66939 41.783565,-40.05179 68.442105,-29.44091 26.74056,10.64353 40.15861,41.89569 29.51903,68.62544 -10.67211,26.81144 -42.00735,40.265 -68.80802,29.59683 C 80.421358,219.1242 66.932437,187.70623 77.629077,160.83492 88.357968,133.88259 119.85835,120.35845 146.8,131.08344 c 27.02233,10.75711 40.58154,42.33955 29.82832,69.35126 -10.78521,27.09207 -42.44938,40.68621 -69.53086,29.90487 C 79.935942,219.52638 66.307009,187.7808 77.116346,160.62982 87.95742,133.39913 119.78407,119.73555 147.00426,130.57277 c 27.2996,10.86884 40.9977,42.77625 30.1327,70.06538 -10.89649,27.36822 -42.88434,41.10071 -70.24215,30.20804 -27.436578,-10.92404 -41.203308,-42.99201 -30.283082,-70.41821 10.95147,-27.50468 43.099252,-41.30552 70.593592,-30.35785 27.57251,10.9788 41.40734,43.20608 30.43232,70.7683 -11.00602,27.64008 -43.3125,41.50876 -70.94233,30.50651 -27.707395,-11.03314 -41.609798,-43.41851 -30.580417,-71.1157 11.060153,-27.77446 43.524117,-41.71046 71.288407,-30.65405 27.84126,11.08707 41.81073,43.62933 30.7274,71.46046 -11.11387,27.90783 -43.73414,41.91064 -71.63187,30.80049 -27.974135,-11.14058 -42.010171,-43.83857 -30.873298,-71.80264 11.16719,-28.0402 43.942598,-42.10934 71.972778,-30.94585 28.10603,11.1937 42.20814,44.04625 31.01813,72.1423 -11.22011,28.17161 -44.14952,42.30658 -72.31119,31.09014 -28.236952,-11.24643 -42.404661,-44.25242 -31.161895,-72.47946 11.272646,-28.30207 44.354935,-42.5024 72.647125,-31.2334 28.36694,11.29877 42.59978,44.45709 31.30465,72.81419 -11.32481,28.43159 -44.55888,42.69681 -72.98067,31.37564 -28.495997,-11.35074 -42.793492,-44.6603 -31.44637,-73.14654 5.488647,-13.7789 16.430004,-25.03006 30.04725,-30.90689"
       transform="matrix(0.72829273,0,0,0.75864422,76.840157,54.168168)" />
    <path
       sodipodi:type="star"
       style="fill:#009bff;fill-opacity:0.02524282;stroke-width:0.26458332"
       id="path3447"
       sodipodi:sides="3"
       sodipodi:cx="132.29166"
       sodipodi:cy="196.45834"
       sodipodi:r1="26.458332"
       sodipodi:r2="13.229166"
       sodipodi:arg1="0.92729522"
       sodipodi:arg2="1.9744928"
       inkscape:flatsided="false"
       inkscape:rounded="0"
       inkscape:randomized="0"
       d="m 148.16666,217.62501 -21.07169,-9.00092 -21.07168,-9.00093 18.33087,-13.74815 18.33087,-13.74815 2.74081,22.74907 z"
       inkscape:transform-center-x="5.1966871"
       inkscape:transform-center-y="-1.5824124" />
    <path
       sodipodi:type="star"
       onclick="alert('black fictile.')"
       style="fill:#009bff;fill-opacity:0.02524282;stroke-width:0.26458332"
       id="path3451"
       sodipodi:sides="3"
       sodipodi:cx="116.41667"
       sodipodi:cy="201.75002"
       sodipodi:r1="45.520638"
       sodipodi:r2="22.760319"
       sodipodi:arg1="0.95054684"
       sodipodi:arg2="1.9977444"
       inkscape:flatsided="false"
       inkscape:rounded="0.03"
       inkscape:randomized="0"
       d="m 142.875,238.79168 c -0.96237,0.68741 -34.80676,-15.83472 -35.88326,-16.32445 -1.0765,-0.48974 -35.769132,-15.14732 -35.883259,-16.32446 -0.114127,-1.17714 31.116649,-22.22618 32.079029,-22.91359 0.96237,-0.68741 31.00252,-23.40332 32.07902,-22.91359 1.0765,0.48974 3.69011,38.06091 3.80424,39.23805 0.11412,1.17714 4.76661,38.55063 3.80423,39.23804 z"
       inkscape:transform-center-x="9.3595936"
       inkscape:transform-center-y="-2.1898501" />
    <path
       sodipodi:type="spiral"
       style="fill:none;fill-rule:evenodd;stroke:#000000;stroke-width:0.26458332"
       id="path3459"
       sodipodi:cx="137.58333"
       sodipodi:cy="238.79167"
       sodipodi:expansion="0.38999999"
       sodipodi:revolution="40"
       sodipodi:radius="33.883198"
       sodipodi:argument="-250.43135"
       sodipodi:t0="0"
       d="m 137.58333,238.79167 c 2.53305,3.16635 -1.37771,4.66582 -3.65559,2.92444 -2.471,-1.88902 -2.21723,-5.62093 -0.17658,-7.7147 2.59002,-2.65742 6.96403,-2.32084 9.4431,0.30157 2.88754,3.0545 2.46749,7.99301 -0.58929,10.76582 -3.42339,3.10537 -8.84858,2.61539 -11.86952,-0.79889 -3.3063,-3.73681 -2.7567,-9.59143 0.96593,-12.83077 4.01283,-3.49187 10.25387,-2.89011 13.69006,1.10612 3.66429,4.26151 3.01597,10.85546 -1.22779,14.47192 -4.48907,3.82552 -11.40903,3.13497 -15.19249,-1.33586 -3.97715,-4.69973 -3.24783,-11.92355 1.43353,-15.86307 4.89644,-4.12051 12.40551,-3.35524 16.49188,1.52292 4.25666,5.08144 3.45779,12.85987 -1.60557,17.08521 -5.25641,4.38643 -13.29043,3.55596 -17.64789,-1.68264 -4.51056,-5.42267 -3.65021,-13.70022 1.75496,-18.18377 5.58129,-4.62963 14.0917,-3.7409 18.696,1.82321 4.74416,5.73313 3.82837,14.46687 -1.88793,19.18715 -5.8789,4.85455 -14.82741,3.91287 -19.65935,-1.94954 -4.96119,-6.01922 -3.99466,-15.17475 2.00839,-20.11444 6.1546,-5.06439 15.51009,-4.07396 20.55397,2.06478 5.16441,6.28545 4.15093,15.83446 -2.11898,20.97925 -6.41217,5.26152 -16.14874,4.22578 -21.39144,-2.17115 -5.35592,-6.53509 -4.29862,-16.45376 2.22151,-21.79157 6.65448,-5.4478 16.75017,-4.36961 22.18052,2.27019 5.53732,6.77061 4.43885,17.0386 -2.31735,22.55908 -6.8837,5.62465 -17.31959,4.50646 -22.92795,-2.3631 -5.70991,-6.99394 -4.57253,-17.59362 2.40753,-23.28775 7.10154,-5.79324 17.86115,-4.63715 23.63907,2.45074 5.87473,7.20665 4.70039,18.12255 -2.49283,23.9824 -7.3094,5.95451 -18.37817,4.76235 -24.31821,-2.53384 -6.03264,-7.40995 -4.82307,-18.62836 2.57388,-24.64692 7.5084,-6.10923 18.8734,-4.88263 24.9689,2.61298 6.18435,7.60487 4.94108,19.11356 -2.65119,25.28451 -7.69947,6.25808 -19.3491,4.99848 -25.59409,-2.68858 -6.33047,-7.79227 -5.05486,-19.58023 2.72519,-25.89791 7.88338,-6.40159 19.80717,-5.11028 26.19625,2.76105 6.4715,7.97288 5.16478,20.03012 -2.79621,26.48938 -8.06082,6.54025 -20.24925,5.2184 -26.77751,-2.8307 -6.60789,-8.14729 -5.27117,-20.46474 2.86456,-27.06087 8.23234,-6.67447 20.67673,-5.32314 27.33966,2.8978 6.74002,8.31604 5.37432,20.88538 -2.93046,27.61408 -8.39845,6.8046 -21.09082,5.42476 -27.88431,-2.96258 -6.86822,-8.47961 -5.47446,-21.29317 2.99417,-28.15048 8.55957,-6.93095 21.49256,-5.52349 28.41278,3.02524 6.9928,8.63838 5.57184,21.6891 -3.05583,28.67135 -8.71608,7.0538 -21.88289,5.61954 -28.92632,-3.08595 -7.11399,-8.79271 -5.66662,-22.07404 3.11563,-29.17783 8.86831,-7.17339 22.26263,-5.71309 29.42598,3.14487 7.23204,8.94292 5.75899,22.44876 -3.1737,29.6709 -9.01655,7.28996 -22.63249,5.80432 -29.9127,-3.20211 -7.34716,-9.08927 -5.84911,-22.81394 3.23016,-30.15149 9.16108,-7.40368 22.99314,-5.89336 30.38734,3.25782 7.45953,9.23203 5.93711,23.1702 -3.28513,30.62038 -9.30213,7.51473 -23.34515,5.98035 -30.85066,-3.31209 -7.56931,-9.37141 -6.02311,-23.51808 3.33871,-31.07829 9.43991,-7.62328 23.68905,-6.06541 31.30335,3.365 7.67665,9.50763 6.10724,23.85811 -3.39099,31.5259 -9.57461,7.72946 -24.02531,6.14863 -31.74602,-3.41666 -7.7817,-9.64086 -6.18959,-24.19072 3.44204,-31.96377 9.70641,-7.83341 24.35437,-6.23015 32.17923,3.46712 7.88459,9.77127 6.27028,24.51632 -3.49193,32.39246 -9.83547,7.93525 -24.67662,6.31002 -32.60352,-3.51647 -7.9854,-9.89901 -6.34937,-24.8353 3.54075,-32.81245 9.96193,-8.03508 24.99242,-6.38835 33.01933,3.56476 8.08428,10.02423 6.42696,25.148 -3.58853,33.22421 -10.08593,8.13301 -25.30209,6.4652 -33.42712,-3.61206 -8.18129,-10.14705 -6.5031,-25.45473 3.63535,-33.62813 10.20759,-8.22913 25.60595,-6.54065 33.82727,3.65841 8.27654,10.26758 6.57787,25.75579 -3.68125,34.02459 -10.32702,8.32354 -25.90427,6.61478 -34.22014,-3.70386 -8.37011,-10.38594 -6.65135,-26.05144 3.72627,-34.41396 10.44433,-8.41629 26.19731,-6.68762 34.60609,3.74846 8.46206,10.50222 6.72357,26.34193 -3.77046,34.79656 -10.55962,8.50747 -26.48532,6.75924 -34.98542,-3.79225 -8.55249,-10.61653 -6.7946,-26.6275 3.81386,-35.17269 10.67296,-8.59715 26.7685,-6.82969 35.35841,3.83527 8.64145,10.72894 6.8645,26.90835 -3.85649,35.54263 -10.78446,8.68539 -27.04708,6.89903 -35.72536,-3.87755 -8.72899,-10.83953 -6.9333,-27.18469 3.89841,-35.90664 10.89418,-8.77225 27.32124,-6.96729 36.08651,3.91911 8.81517,10.9484 7.00103,27.45672 -3.93965,36.26498 -11.0022,8.85778 -27.59116,7.03453 -36.44208,-3.96001 -8.90007,-11.05559 -7.06777,-27.72458 3.98021,-36.61785 11.10858,-8.94205 27.85701,-7.10077 36.79231,4.00025 8.98372,11.16118 7.13354,27.98847 -4.02014,36.96549 -11.21339,9.02509 -28.11896,7.16607 -37.1374,-4.03987 -9.06616,-11.26524 -7.19837,-28.24851 4.05946,-37.30809 11.3167,-9.10695 28.37714,-7.23044 37.47755,4.0789 9.14745,11.3678 7.2623,28.50487 -4.09819,37.64583 -11.41855,9.18768 -28.6317,7.29394 -37.81294,-4.11735 -9.22763,-11.46895 -7.32537,-28.75766 4.13636,-37.9789 11.519,-9.26731 28.88277,-7.35658 38.14374,4.15525 9.30673,11.56871 7.38759,29.00703 -4.174,38.30746 -11.61809,9.34589 -29.13047,7.4184 -38.4701,-4.19261 -9.3848,-11.66715 -7.44901,-29.2531 4.2111,-38.63168 11.71589,-9.42345 29.37492,-7.47942 38.7922,4.22947 9.46186,11.76431 7.50964,29.49596 -4.24771,38.95169 -11.81241,9.50002 -29.61622,7.53967 -39.11016,-4.26583 -9.53795,-11.86022 -7.56952,-29.73573 4.28383,-39.26764 11.90773,-9.57564 29.85449,-7.59919 39.42413,4.30171 9.6131,11.95494 7.62867,29.97252 -4.31948,39.57967 -12.00186,9.65033 -30.08982,7.65797 -39.73424,-4.33714 -9.68735,-12.0485 -7.68711,-30.20642 4.35467,-39.88789 12.09486,-9.72414 30.32232,-7.71607 40.04062,4.37211 9.76071,12.14094 7.74486,30.43753 -4.38943,40.19244 -12.18675,9.79707 -30.55206,7.77348 -40.34337,-4.40666 -9.83322,-12.23228 -7.80194,-30.66591 4.42377,-40.49341 12.27756,-9.86917 30.77912,-7.83025 40.6426,4.44078 9.90491,12.32258 7.85839,30.89167 -4.45769,40.79093 -12.36734,9.94046 -31.00359,7.88637 -40.93842,-4.4745 -9.97581,-12.41185 -7.91421,-31.11488 4.49121,-41.08509 12.45611,-10.01095 31.22555,-7.94188 41.23094,4.50783 10.04591,12.50012 7.96941,31.33561 -4.52435,41.37599 -12.5439,10.08068 -31.44507,7.99679 -41.52025,-4.54078 -10.11526,-12.58743 -8.02403,-31.55393 4.55711,-41.66373 12.63074,-10.14965 31.66222,-8.05111 41.80644,4.57336 10.18388,12.67381 8.07807,31.76992 -4.58951,41.94839 -12.71665,10.21791 -31.87706,8.10488 -42.0896,-4.60557 -10.25177,-12.75928 -8.13154,-31.98364 4.62156,-42.23007 12.80167,-10.28546 32.08966,-8.15808 42.36981,4.63745 10.31897,12.84385 8.18448,32.19514 -4.65326,42.50883 -12.88582,10.35232 -32.30008,8.21075 -42.64715,-4.66898 -10.3855,-12.92757 -8.23689,-32.4045 4.68463,-42.78477 12.96911,-10.41851 32.50838,-8.2629 42.9217,4.70019 10.45136,13.01044 8.28877,32.61175 -4.71568,43.05795 -13.05157,10.48405 -32.71461,8.31453 -43.19352,-4.73108 -10.51659,-13.0925 -8.34016,-32.81697 4.7464,-43.32844 13.13323,-10.54896 32.91883,-8.36567 43.4627,4.76165 10.58118,13.17376 8.39106,33.0202 -4.77682,43.59632 -13.2141,10.61325 -33.12109,8.41632 -43.7293,-4.79192 -10.64517,-13.25425 -8.44147,-33.22149 4.80694,-43.86165 13.29421,-10.67693 33.32143,-8.46651 43.99338,4.82189 10.70855,13.33398 8.49142,33.4209 -4.83677,44.12449 -13.37356,10.74003 -33.5199,8.51623 -44.255,-4.85157 -10.77136,-13.41297 -8.54092,-33.61846 4.86631,-44.38491 13.45219,-10.80255 33.71656,-8.5655 44.51423,4.88098 10.8336,13.49123 8.58997,33.81422 -4.89558,44.64296 -13.5301,10.86451 -33.91144,8.61433 -44.77111,-4.91011 -10.89529,-13.5688 -8.63859,-34.00823 4.92457,-44.8987 13.60733,-10.92592 34.10458,-8.66273 45.02571,4.93898 10.95643,13.64567 8.68679,34.20051 -4.9533,45.15216 -13.68386,10.98681 -34.29602,8.71073 -45.27808,-4.96757 -11.01705,-13.72188 -8.73456,-34.39112 4.98178,-45.40344 13.75974,-11.04716 34.48581,-8.7583 45.52826,4.99592 11.07715,13.79743 8.78194,34.5801 -5.01,45.65255 -13.83496,11.10701 -34.67397,8.80548 -45.77631,-5.02401 -11.13674,-13.87234 -8.82891,-34.76747 5.03797,-45.89956 13.90955,-11.16635 34.86056,-8.85225 46.02229,5.05187 11.19583,13.94662 8.8755,34.95327 -5.06571,46.1445 -13.98353,11.2252 -35.0456,8.89866 -46.26622,-5.07948 -11.25445,-14.02029 -8.92171,-35.13755 5.09321,-46.38743 14.05689,-11.28358 35.22912,-8.94468 46.50815,5.10687 11.31259,14.09334 8.96755,35.32031 -5.12048,46.62838 -14.12966,11.34148 -35.41115,8.99033 -46.74813,-5.13403 -11.37026,-14.16582 -9.01302,-35.50162 5.14752,-46.8674 14.20185,-11.39893 35.59174,-9.03563 46.9862,5.16096 11.42749,14.23773 9.05815,35.68149 -5.17434,47.10453 -14.27347,11.45593 -35.7709,9.08057 -47.2224,-5.18767 -11.484267,-14.30907 -9.10291,-35.85996 5.20095,-47.33981 14.34453,-11.51249 35.94867,-9.12517 47.45677,5.21417 11.5406,14.37986 9.14734,36.03704 -5.22735,47.57328" />
    <path
       sodipodi:type="spiral"
        onclick="alert('composition contemporaine')"
       style="fill:#ffd400;fill-rule:evenodd;stroke:#000000;stroke-width:0.26458332"
       id="path3461"
       sodipodi:cx="127"
       sodipodi:cy="170"
       sodipodi:expansion="0.30000001"
       sodipodi:revolution="9.8000002"
       sodipodi:radius="23.665052"
       sodipodi:argument="-250.22026"
       sodipodi:t0="0"
       d="m 127,170 c 3.40177,6.80359 -3.91677,7.61111 -7.04153,3.52074 -3.02457,-3.9592 -1.32308,-9.66969 2.70699,-12.18988 4.84763,-3.03146 11.30907,-1.06287 14.12501,3.77394 3.16758,5.4408 0.9598,12.53026 -4.45402,15.56817 -5.90755,3.31495 -13.52407,0.90946 -16.74836,-4.96706 -3.45636,-6.2995 -0.88272,-14.37203 5.38521,-17.7594 6.64081,-3.58888 15.11723,-0.86835 18.65069,5.74154 3.71265,6.94508 0.86117,15.78548 -6.05406,19.45192 -7.22084,3.82847 -16.39361,0.85844 -20.1825,-6.33374 -3.93728,-7.47386 -0.85862,-16.95329 6.58777,-20.85594 7.70825,-4.03989 17.47293,-0.86075 21.48203,6.82115 4.13703,7.92703 0.86425,17.95884 -7.03749,22.06814 -8.13252,4.22932 -18.4159,0.86869 -22.61997,-7.23952 -4.31727,-8.32652 -0.87382,-18.84792 7.42931,-23.14202 8.51049,-4.40133 19.25802,-0.87942 23.63791,7.60852 4.48189,8.68561 0.88539,19.6487 -7.77845,24.11064 -8.85283,4.55926 -20.02206,0.89158 -24.56265,-7.94021 -4.63374,-9.01298 -0.89796,-20.37985 8.09465,-24.99603 9.16675,-4.70556 20.72357,-0.90445 25.41255,8.24256 4.77495,9.31471 0.91101,21.05447 -8.38454,25.8137 -9.45739,4.84209 -21.37367,0.91761 -26.20081,-8.52115 -4.90714,-9.5952 -0.92423,-21.68212 8.65286,-26.57501 9.72853,-4.97026 21.98065,-0.93084 26.93729,8.78006 5.03157,9.85773 0.93743,22.27003 -8.90312,27.28855 -9.9831,5.09121 -22.55089,0.94399 -27.62955,-9.02235 -5.14927,-10.10488 -0.95052,-22.8238 9.13801,-27.961 10.22334,-5.20585 23.08932,-0.957 28.28354,9.25037 5.26103,10.33867 0.96341,23.3479 -9.35964,28.5977 -10.45109,5.31492 -23.59997,0.96979 -28.90402,-9.46602 -5.36756,-10.56073 -0.9761,-23.84589 9.56968,-29.20293 10.6678,-5.41902 24.08605,-0.98235 29.49488,9.6708 5.46938,10.7724 0.98853,24.32075 -9.76951,29.78023 -10.87469,5.51867 -24.55028,0.99465 -30.05934,-9.86596 -5.56697,-10.97477 -1.00071,-24.7749 9.96025,-30.33252 11.07278,-5.61432 24.99488,-1.00671 30.60009,10.05251 5.66074,11.1688 1.01264,25.21042 -10.14284,30.86229 -11.26293,5.70632 -25.42175,1.01852 -31.11941,-10.23132 -5.75104,-11.35526 -1.02433,-25.62906 10.31807,-31.37166 11.44587,-5.79498 25.83253,-1.03008 31.61926,10.40315 1.11858,2.21004 1.88608,4.59513 2.2669,7.04265" />
    <path
       sodipodi:type="spiral"
       style="fill:none;fill-rule:evenodd;stroke:#000000;stroke-width:0.26458332"
       id="path3463"
       sodipodi:cx="58.208332"
       sodipodi:cy="185.875"
       sodipodi:expansion="0.30000001"
       sodipodi:revolution="40"
       sodipodi:radius="7.4835467"
       sodipodi:argument="-248.97122"
       sodipodi:t0="0"
       d="m 58.208332,185.875 c -1.115387,1.1154 -1.754186,-0.27142 -1.154405,-1.1544 0.580548,-0.85465 1.815552,-0.8944 2.575633,-0.26684 0.914275,0.75488 0.950725,2.15513 0.183844,3.0263 -0.862643,0.97995 -2.402134,1.01053 -3.354809,0.14469 -1.039555,-0.9448 -1.065801,-2.60094 -0.121157,-3.62063 1.012637,-1.09308 2.769518,-1.11615 3.846954,-0.1052 1.141532,1.0711 1.16219,2.91707 0.09355,4.04567 -1.122835,1.18583 -3.048999,1.2046 -4.223784,0.0846 -1.226705,-1.16949 -1.243944,-3.16882 -0.0775,-4.38586 1.212132,-1.2647 3.27891,-1.28068 4.534997,-0.0717 1.30026,1.25151 1.315178,3.381 0.06683,4.67347 -1.288184,1.33372 -3.476362,1.34773 -4.802966,0.0627 -1.365347,-1.32255 -1.378577,-3.56598 -0.05915,-4.92477 1.354956,-1.39537 3.650644,-1.40792 5.039924,-0.056 1.423975,1.38563 1.435914,3.73095 0.05331,5.14923 -1.414802,1.45131 -3.807422,1.46271 -5.253376,0.0509 -1.477495,-1.44263 -1.488411,-3.88047 -0.0487,-5.35291 1.46925,-1.50265 3.950436,-1.51313 5.448295,-0.0467 1.526863,1.49479 1.536945,4.01762 0.04495,5.53993 -1.519349,1.55022 -4.082297,1.55994 -5.628165,0.0433 -1.57278,-1.54302 -1.582167,-4.14467 -0.04184,-5.71328 1.565859,-1.59462 4.204908,-1.6037 5.795533,-0.0405 1.615776,1.58795 1.624574,4.26321 0.0392,5.87515 -1.609347,1.63631 -4.319702,1.64485 -5.952318,0.038 -1.656265,-1.6301 -1.664557,-4.37452 -0.03693,-6.02722 1.650252,-1.67568 4.427788,-1.68374 6.100016,-0.0359 1.694573,1.66984 1.702423,4.47959 0.03496,6.17083 -1.688916,1.713 -4.530047,1.72065 -6.239807,0.0341 -1.730965,-1.7075 -1.738427,-4.57922 -0.03322,-6.30705 1.725617,-1.74851 4.627187,-1.75579 6.372648,-0.0324 1.765657,1.7433 1.772775,4.67402 0.03169,6.43671 -1.76058,1.78243 -4.719788,1.78939 -6.499323,0.031 -1.798829,-1.77747 -1.80564,-4.76454 -0.03031,-6.56056 1.793994,-1.81489 4.808335,-1.82156 6.620484,-0.0297 1.830636,1.81017 1.837168,4.85122 0.02907,6.67917 -1.826015,1.84607 -4.893233,1.85247 -6.73668,0.0285 -1.861204,-1.84155 -1.867485,-4.93443 -0.02795,-6.79307 1.856775,-1.87606 4.974826,-1.88222 6.848379,-0.0274 1.890644,1.87172 1.896695,5.01448 0.02692,6.90267 -1.88639,1.90497 -5.053411,1.91091 -6.955979,0.0264 -1.919054,-1.9008 -1.924896,-5.09165 -0.02599,-7.00835 1.914957,-1.9329 5.129243,-1.93864 7.05983,-0.0255 1.946515,1.92888 1.952163,5.1662 0.02513,7.11045 -1.942564,1.95991 -5.202546,1.96547 -7.160234,0.0247 -1.973101,-1.95603 -1.978572,-5.23831 -0.02433,-7.20923 1.969283,-1.98609 5.273516,-1.99147 7.257455,-0.024 1.998878,1.98234 2.004184,5.30818 0.0236,7.30495 -1.995183,2.01148 -5.342324,2.01671 -7.351729,0.0232 -2.023902,-2.00785 -2.029054,-5.37597 -0.02291,-7.39783 2.020321,-2.03615 5.409125,-2.04123 7.443263,-0.0226 2.048225,2.03263 2.053234,5.44182 0.02227,7.48807 -2.044749,2.06013 -5.474055,2.06508 -7.532244,0.022 -2.071892,-2.05671 -2.076767,-5.50586 -0.02168,-7.57583 2.068514,-2.08349 5.537235,-2.08831 7.618836,-0.0214 2.094945,2.08016 2.099695,5.5682 0.02112,7.66128 -2.091658,2.10625 -5.598777,2.11094 -7.70319,0.0208 -2.117421,-2.10301 -2.122054,-5.62896 -0.02059,-7.74457 2.11422,-2.12845 5.65878,-2.13303 7.785444,-0.0203 2.139354,2.12529 2.143875,5.68823 0.0201,7.82582 -2.136234,2.15012 -5.717334,2.15459 -7.865717,0.0199 -2.160775,-2.14704 -2.165192,-5.74609 -0.01963,-7.90515 2.15773,-2.1713 5.774521,-2.17567 7.944124,-0.0194 2.181711,2.1683 2.186029,5.80263 0.01919,7.98266 -2.178738,2.19201 -5.830416,2.19628 -8.020764,0.019 -2.20219,-2.18906 -2.206414,-5.8579 -0.01877,-8.05845 2.199283,-2.21226 5.885088,-2.21644 8.095733,-0.0186 2.222233,2.20939 2.226369,5.91198 0.01838,8.13261 -2.219391,2.2321 -5.9386,2.2362 -8.169116,0.0182 -2.241864,-2.22928 -2.245915,-5.96494 -0.018,-8.20524 2.239082,-2.25153 5.991011,-2.25554 8.240993,-0.0178 2.261101,2.24878 2.265071,6.01682 0.01764,8.27639 -2.258377,2.27058 -6.042373,2.27451 -8.311436,0.0175 -2.279964,-2.26788 -2.283858,-6.06767 -0.0173,-8.34614 2.277295,-2.28926 6.092735,-2.29311 8.380513,-0.0171 2.298469,2.28662 2.30229,6.11756 0.01698,8.41456 -2.295853,2.3076 -6.142145,2.31138 -8.448285,0.0168 -2.316635,-2.305 -2.320386,-6.1665 -0.01667,-8.4817 2.314066,-2.32559 6.190644,-2.32931 8.514812,-0.0165 2.334473,2.32305 2.338157,6.21456 0.01637,8.54762 -2.331952,2.34328 -6.238272,2.34693 -8.580148,0.0162 -2.351999,-2.34078 -2.355619,-6.26178 -0.01608,-8.61239 2.349523,-2.36065 6.285068,-2.36424 8.644344,-0.0159 2.369225,2.35819 2.372785,6.30816 0.01581,8.67602 -2.366793,2.37773 -6.331063,2.38126 -8.707446,0.0157 -2.386164,-2.37532 -2.389665,-6.35377 -0.01555,-8.7386 2.383774,-2.39453 6.376293,-2.398 8.769499,-0.0154 2.402827,2.39216 2.406271,6.39863 0.0153,8.80014 -2.400477,2.41106 -6.420785,2.41448 -8.830543,0.0152 -2.419225,-2.40873 -2.422615,-6.44277 -0.01506,-8.8607 2.416913,-2.42733 6.464569,-2.43069 8.890618,-0.0149 2.435368,2.42504 2.438706,6.48621 0.01482,8.92031 -2.433092,2.44334 -6.507673,2.44665 -8.949761,0.0147 -2.451265,-2.44108 -2.454552,-6.52897 -0.0146,-8.97899 2.449024,-2.45912 6.55012,-2.46239 9.008006,-0.0145 2.466924,2.4569 2.470163,6.57111 0.01438,9.0368 -2.464718,2.47467 -6.591936,2.47789 -9.065385,0.0143 -2.482356,-2.47248 -2.485548,-6.61261 -0.01417,-9.09376 2.480182,-2.48999 6.63314,-2.49316 9.121928,-0.0141 2.497567,2.48783 2.500714,6.65352 0.01397,9.1499 -2.495424,2.50509 -6.673757,2.50821 -9.177666,0.0139 -2.512564,-2.50296 -2.515667,-6.69385 -0.01378,-9.20524 2.510452,-2.51999 6.713804,-2.52307 9.232625,-0.0137 2.527355,2.51788 2.530416,6.73362 0.01359,9.25982 -2.525273,2.53467 -6.753302,2.53771 -9.286831,0.0135 -2.541948,-2.5326 -2.544968,-6.77285 -0.01341,-9.31365 2.539894,-2.54918 6.792268,-2.55218 9.340308,-0.0133 2.556347,2.54713 2.559328,6.81155 0.01323,9.36678 -2.554321,2.56347 -6.830719,2.56644 -9.39308,0.0131 -2.57056,-2.56146 -2.573503,-6.84975 -0.01306,-9.41921 2.56856,-2.57759 6.868673,-2.58052 9.44517,-0.013 2.584591,2.57561 2.587497,6.88746 0.0129,9.47096 -2.582617,2.59154 -6.906142,2.59443 -9.496597,0.0128 -2.598448,-2.58958 -2.601317,-6.9247 -0.01273,-9.52207 2.596498,-2.60531 6.943143,-2.60817 9.547383,-0.0127 2.612134,2.60337 2.614968,6.96147 0.01258,9.57254 -2.610209,2.61892 -6.979691,2.62173 -9.597546,0.0125 -2.625655,-2.61701 -2.628456,-6.9978 -0.01243,-9.6224 2.623753,-2.63236 7.015796,-2.63514 9.647105,-0.0124 2.639015,2.63046 2.641783,7.03369 0.01228,9.67166 -2.637136,2.64564 -7.051473,2.64839 -9.696077,0.0122 -2.652218,-2.64376 -2.654955,-7.06915 -0.01214,-9.72034 2.650362,-2.65877 7.086734,-2.66149 9.744478,-0.0121 2.665271,2.65691 2.667977,7.10421 0.012,9.76847 -2.663436,2.67174 -7.121591,2.67443 -9.792325,0.0119 -2.678176,-2.66992 -2.680851,-7.13887 -0.01187,-9.81605 2.676362,-2.68457 7.156053,-2.68723 9.839632,-0.0118 2.690938,2.68277 2.693584,7.17314 0.01174,9.86309 -2.689143,2.69727 -7.190133,2.6999 -9.886415,0.0117 -2.703559,-2.69548 -2.706176,-7.20703 -0.01161,-9.90961 2.701785,-2.70982 7.22384,-2.71242 9.932686,-0.0115 2.716046,2.70806 2.718635,7.24056 0.01149,9.95564 -2.714291,2.72224 -7.257184,2.72481 -9.978461,0.0114 -2.728399,-2.72049 -2.730961,-7.27372 -0.01136,-10.00116 2.726662,-2.73453 7.290174,-2.73708 10.02375,-0.0113 2.740623,2.7328 2.743159,7.30654 0.01125,10.04622 -2.738905,2.74669 -7.32282,2.74921 -10.068566,0.0112 -2.752722,-2.74498 -2.755232,-7.33902 -0.01113,-10.0908 2.751021,-2.75873 7.355129,-2.76123 10.112923,-0.0111 2.764697,2.75703 2.767182,7.37116 0.01102,10.13493 -2.763014,2.77064 -7.387111,2.77312 -10.156829,0.011 -2.776553,-2.76897 -2.779014,-7.40298 -0.01091,-10.17862 2.774886,-2.78244 7.418772,-2.78489 10.200297,-0.0109 2.788292,2.78078 2.790728,7.43449 0.0108,10.22187 -2.786642,2.79412 -7.450122,2.79655 -10.243337,0.0108 -2.799917,-2.79247 -2.80233,-7.46568 -0.0107,-10.2647 2.798282,-2.80568 7.481167,-2.80809 10.28596,-0.0106 2.81143,2.80406 2.81382,7.49657 0.0106,10.30711 -2.809811,2.81715 -7.511914,2.81953 -10.328174,0.0106 -2.822834,-2.81553 -2.825202,-7.52718 -0.0105,-10.34913 2.821231,-2.8285 7.54237,-2.83085 10.36999,-0.0105 2.834131,2.8269 2.836477,7.55749 0.0104,10.39075 -2.832543,2.83974 -7.572542,2.84208 -10.411415,0.0104 -2.845325,-2.83816 -2.84765,-7.58752 -0.0103,-10.43198 2.843751,-2.85088 7.602436,-2.8532 10.452459,-0.0103 2.856417,2.84932 2.858721,7.61728 0.01021,10.47284 -2.854858,2.86193 -7.632059,2.86422 -10.493132,0.0102 -2.867409,-2.86037 -2.869692,-7.64677 -0.01012,-10.51333 2.865863,-2.87287 7.661414,-2.87514 10.533439,-0.0101 2.878303,2.87133 2.880567,7.676 0.01003,10.55346 -2.876772,2.88372 -7.690511,2.88597 -10.57339,0.01"
       transform="matrix(3.1440288,0,0,3.1399356,-66.592006,-387.1772)" />
    <path
       sodipodi:type="star"
        onclick="alert('composition contemporaine')"
       style="fill:#ff3300;fill-opacity:0.02524282;stroke-width:0.26458332"
       id="path3465"
       sodipodi:sides="5"
       sodipodi:cx="10.583333"
       sodipodi:cy="138.25002"
       sodipodi:r1="30.85544"
       sodipodi:r2="14.967083"
       sodipodi:arg1="1.0303766"
       sodipodi:arg2="0.83298027"
       inkscape:flatsided="false"
       inkscape:rounded="0"
       inkscape:randomized="0"
       d="M 26.458332,164.70833 20.651294,149.32475 -9.6743783,161.52411 3.1618056,151.2475 -17.81162,126.17588 -4.0713838,135.20817 13.291998,107.5137 8.9477474,123.37257 40.652333,131.32806 24.227202,132.0971 Z"
       inkscape:transform-center-x="-0.47526451"
       inkscape:transform-center-y="-3.1888737" />
    <path
       style="fill:#ff3300;fill-opacity:0.02524282;stroke-width:0.26458332"
       id="path3488"
       d="m 11.28856,228.91802 c 1.179263,-1.57271 2.319388,-3.17124 3.652268,-4.62203 3.897918,-3.27942 7.117307,-1.20651 13.935331,-0.83233 0.301061,0.0165 1.519555,2.06686 1.698686,2.34393 1.229984,2.12552 2.339202,4.31343 3.576719,6.43688 1.189818,1.80143 2.631393,3.39895 4.175324,4.89947 1.478224,1.39632 2.848784,2.04902 4.875545,2.05902 -19.801131,-0.15152 -12.164141,0.69931 -8.029053,-0.73459 1.753693,-0.60812 3.330252,-1.48942 4.917617,-2.43404 2.992096,-2.05568 5.265375,-4.84686 6.99788,-8.00359 0.987184,-2.21906 1.509159,-4.66626 1.264838,-7.10205 -0.04918,-0.49024 -0.168569,-0.97087 -0.252855,-1.45631 -0.52955,-2.46606 -1.480364,-4.78898 -2.54246,-7.06454 0,0 11.815741,-0.50951 11.815741,-0.50951 v 0 c 1.079675,2.38337 2.068925,4.79671 2.557428,7.38274 0.509778,3.31848 0.332653,6.22774 -1.021625,9.34328 -1.813076,3.3065 -4.16479,6.27167 -7.169409,8.58464 -7.495267,5.06598 -9.50151,3.85633 -20.418753,3.74447 -2.106911,-0.43664 -3.430127,-1.34532 -4.934857,-2.87128 -1.551902,-1.60361 -3.027121,-3.29098 -4.174276,-5.21539 -1.191826,-2.11126 -2.210256,-4.32701 -3.600392,-6.3193 -0.307895,-0.39375 -0.715009,-1.01751 -1.185356,-1.2891 -0.165162,-0.0954 -0.742148,-0.147 -0.551504,-0.15234 3.798417,-0.10638 7.599354,-0.087 11.398713,-0.15145 0.215448,-0.004 -0.43494,-0.076 -0.645692,-0.0311 -0.253597,0.054 -0.472752,0.21313 -0.709128,0.31969 -1.413713,1.27265 -2.608066,2.80592 -3.48583,4.49553 0,0 -12.1449,-0.82071 -12.1449,-0.82071 z"
       inkscape:connector-curvature="0" />
    <path
       style="fill:#ff3300;fill-opacity:0.02524282;stroke-width:0.26458332"
       id="path3490"
       d="m 20.065783,162.89086 c 0.89249,5.71379 1.710652,11.45277 3.007898,17.09309 0.396135,1.72236 0.863566,3.42755 1.295349,5.14132 2.099376,8.48711 4.731795,16.82276 7.983518,24.93636 1.093523,2.6394 2.163115,5.30884 3.684477,7.73698 0.475133,0.80692 0.8407,1.60366 1.821002,1.78592 1.001679,0.0823 2.009111,0.0562 3.013271,0.0528 4.805172,-0.0188 -5.719842,0.0234 -10.604129,-0.0123 -0.224581,-0.002 0.447323,-0.0413 0.670343,-0.0677 0.654418,-0.0777 1.237512,-0.18164 1.859388,-0.3982 1.691825,-0.60087 2.613356,-2.16318 3.488336,-3.63078 1.873109,-3.61465 2.762099,-7.55241 3.337062,-11.54897 0.400045,-2.81665 0.308978,-5.68687 -0.35089,-8.45994 -0.2833,-1.19056 -0.754814,-2.37475 -1.175226,-3.52037 -0.940054,-2.44429 -2.470992,-4.54552 -4.205838,-6.47704 -0.547286,-0.58981 -1.145651,-1.14069 -1.756463,-1.66431 -0.152501,-0.13073 -0.68189,-0.36408 -0.481028,-0.36295 13.831839,0.0777 15.164482,-0.19578 10.82699,0.54007 -2.848615,2.64519 -4.295261,6.4286 -5.697569,9.96655 -1.366232,3.81159 -2.778318,7.61416 -3.84787,11.5223 -0.312121,1.03325 -0.584062,2.07619 -0.828378,3.12712 0,0 -12.006308,-0.29413 -12.006308,-0.29413 v 0 c 0.285657,-1.07119 0.580055,-2.1408 0.978137,-3.17732 1.26455,-3.91132 2.820968,-7.71913 4.166731,-11.60276 1.400043,-3.73347 2.845869,-7.46951 5.242634,-10.69978 3.299711,-4.03671 0.648925,-1.24207 13.230672,-0.42785 0.190664,0.0123 1.939512,2.0076 2.140429,2.22988 1.676834,2.09242 3.112317,4.36867 3.978309,6.92495 1.353077,4.05749 2.098826,8.26026 1.426721,12.53918 -0.571762,4.11 -1.488482,8.13233 -3.099522,11.97365 -0.806225,1.65108 -1.713506,3.50877 -3.351284,4.47446 -0.420312,0.19345 -0.810832,0.45921 -1.251347,0.60074 -0.210603,0.0677 -0.438007,0.0624 -0.656503,0.0969 -0.22688,0.0359 -0.449905,0.11012 -0.679566,0.11417 -8.94225,0.15777 -8.636929,0.15629 -13.319726,0.11475 -1.075658,-0.0296 -2.20419,-0.0159 -3.148661,-0.60481 -0.805278,-0.66593 -1.320031,-1.56903 -1.78307,-2.49604 -1.278179,-2.53705 -2.084401,-5.27745 -3.010975,-7.95389 -2.762642,-8.25829 -5.099541,-16.64358 -7.300778,-25.06769 -1.067728,-4.05836 -1.633878,-6.10678 -2.595736,-10.165 -0.961169,-4.05532 -1.7569135,-8.16129 -3.0801747,-12.12207 0,0 12.0797747,-0.21728 12.0797747,-0.21728 z"
       inkscape:connector-curvature="0" />
    <path
       style="fill:#ff3300;fill-opacity:0.02524282;stroke-width:0.26458332"
       id="path3492"
       d="m 31.86136,178.61078 c 0.632272,4.95087 1.318199,9.89702 1.965973,14.84693 0.903222,7.46764 2.178312,14.66381 4.445577,21.84237 0.977088,2.42558 1.867638,4.99734 3.402094,7.14937 0.47442,0.66536 0.836261,0.98566 1.397458,1.54727 1.139701,0.92764 2.393723,1.58769 3.836477,1.863 4.065455,0.41962 9.979792,0.357 -9.289854,0.0695 -0.369604,-0.006 0.74014,-0.0296 1.105733,-0.0842 0.854186,-0.12754 1.350643,-0.33024 2.168417,-0.59964 1.765146,-0.67211 3.402552,-1.61791 5.132012,-2.37203 0,0 12.013848,1.3677 12.013848,1.3677 v 0 c -0.734613,0.36481 -1.501413,0.60901 -2.244845,0.9567 -1.490649,0.69715 -0.395507,0.23385 -1.958318,1.00052 -0.355804,0.17455 -0.720535,0.33027 -1.080802,0.4954 -5.653982,2.33915 -11.801972,2.15479 -17.827524,0.72141 -1.45677,-0.55477 -2.788187,-1.36518 -3.825804,-2.54819 -2.133261,-2.69477 -3.184157,-6.00747 -4.210251,-9.24654 -0.684246,-2.6067 -1.00069,-3.70116 -1.582332,-6.41474 -1.10582,-5.15906 -1.82023,-10.38923 -2.712755,-15.58655 -0.778965,-4.91725 -1.488071,-9.88291 -2.886315,-14.66998 0,0 12.151211,-0.33826 12.151211,-0.33826 z"
       inkscape:connector-curvature="0" />
    <path
       style="fill:#0066cc;fill-opacity:0.02524282;stroke-width:0.26458332"
       id="path3494"
       d="m 38.426416,176.01905 c 0.116628,0.60841 0.254966,1.21306 0.349882,1.82523 0.605457,3.90494 0.958625,7.86808 1.325044,11.79953 1.512718,16.23051 -0.550405,-5.0412 1.141362,12.23006 1.136113,11.08158 1.949736,22.1943 3.282641,33.25485 0,0 -11.230779,0.0898 -11.230779,0.0898 v 0 c -0.441852,-11.10067 -0.985909,-22.20716 -2.441022,-33.23084 -0.698815,-5.72858 -1.340668,-11.46919 -2.357329,-17.15299 -0.277157,-1.5495 -0.948939,-4.95555 -1.477928,-6.65322 -0.171879,-0.5516 -0.44041,-1.0683 -0.660616,-1.60244 0,0 12.068745,-0.55997 12.068745,-0.55997 z"
       inkscape:connector-curvature="0" />
    <path
       style="fill:#0066cc;fill-opacity:0.02524282;stroke-width:0.26458332"
       id="path3496"
       d="m 19.540384,146.24542 c 0.299862,3.87867 1.563115,7.60654 2.689085,11.30413 0.895512,2.94079 1.816319,5.87382 2.720713,8.81189 1.969817,7.09448 4.474794,13.99945 7.181302,20.83845 0.256445,0.45954 0.355695,1.05328 0.769337,1.37861 0.233169,0.18339 1.182735,-0.0575 0.886677,-0.0761 -3.642265,-0.22938 -7.373752,0.24421 -10.934279,-0.55663 -0.688607,-0.15488 0.99331,-1.0115 1.401095,-1.58759 1.431199,-2.02191 2.315178,-4.06517 3.415364,-6.28988 4.247668,-8.93339 6.15257,-18.66605 7.608651,-28.37773 0.495113,-3.77011 0.816372,-7.56057 0.985174,-11.35877 0.07933,-1.78506 0.249859,-3.68656 -0.05117,-5.46244 4.036211,0.22742 8.170381,-0.23035 12.108635,0.68227 0.67769,0.15704 -0.149715,1.3835 -0.200073,2.07732 -0.314391,4.33161 -0.327292,8.66955 -0.493336,13.00693 -0.07523,1.96513 -0.195477,3.92827 -0.293214,5.89241 -0.630312,10.54963 -1.439839,21.08807 -2.012895,31.64115 -0.09938,2.43324 -0.228245,4.86642 -0.262747,7.30191 -0.0062,0.44031 -0.02233,0.88127 -1.3e-5,1.32106 0.0073,0.1436 0.232161,0.4264 0.08844,0.42218 -4.060037,-0.11899 -8.107069,-0.51734 -12.160602,-0.77601 0.528415,-6.42077 0.997908,-12.86801 0.772522,-19.31493 -0.061,-1.74496 -0.206864,-3.48592 -0.310298,-5.22887 -0.661426,-8.40724 -2.523958,-16.64041 -4.90687,-24.70896 -1.450824,-4.50947 -3.268152,-8.89287 -5.068006,-13.2722 -0.979791,-2.68633 -2.35512,-5.20119 -3.259282,-7.91384 -0.29243,-0.7551 -0.531505,-1.52699 -0.752261,-2.30525 0,0 12.080043,-0.32287 12.080043,-0.32287 v 0 c 0.199623,0.75852 0.416526,1.5116 0.661776,2.25691 0.817764,2.67766 2.050357,5.20373 2.981889,7.84217 1.693936,4.42088 3.418969,8.84101 4.674139,13.4118 2.079218,8.19072 3.729922,16.49948 4.31777,24.94606 0.303779,4.73609 0.42449,5.73553 0.50409,10.46042 0.07911,4.69614 -0.16931,9.42291 0.385003,14.09884 -4.033428,0.21997 -8.06241,0.54792 -12.100277,0.6599 -0.127127,0.004 0.165198,-0.20535 0.192061,-0.32966 0.09398,-0.43493 0.114438,-0.88257 0.165404,-1.3246 0.28117,-2.43867 0.51661,-4.88276 0.833448,-7.31736 1.18871,-10.49843 2.267953,-21.01868 2.631218,-31.58373 0.0356,-1.95276 0.108514,-3.90519 0.106818,-5.85826 -0.0016,-1.80201 -0.179888,-7.63768 -0.269066,-9.66431 -0.04897,-1.11294 -0.105013,-2.22584 -0.188359,-3.33673 -0.05105,-0.68039 -0.880237,-1.88523 -0.214712,-2.03561 3.926165,-0.88717 8.038965,-0.42709 12.058449,-0.64064 -0.556951,1.71847 -0.521005,3.68722 -0.698918,5.46634 -0.382355,3.82354 -0.840121,7.64075 -1.435585,11.43742 -1.613794,9.75339 -3.524011,19.52482 -7.372342,28.68417 -1.160121,2.75786 -1.599297,3.96075 -2.905627,6.52315 -0.352518,0.69147 -0.371293,1.88155 -1.132189,2.03464 -4.222832,0.84965 -8.590853,0.79017 -12.898314,0.78834 -0.363598,-1.5e-4 -0.565619,-0.47945 -0.747807,-0.79411 -0.269237,-0.46501 -0.388196,-1.00209 -0.582294,-1.50314 -2.150699,-6.9666 -4.386535,-13.90671 -6.448173,-20.90091 -2.160342,-6.75298 -4.6378815,-13.40109 -6.6184515,-20.20844 0,0 12.0980555,-0.23885 12.0980555,-0.23885 z"
       inkscape:connector-curvature="0" />
  </g>
</svg>
